<?xml version="1.0" encoding="utf-8"?>
<svg enable-background="new 0 0 1024 224" fill="none" height="auto" id="Layer_1" version="1.1" viewBox="7 -83 1004 391" width="100%" x="0px" xml:space="preserve" xmlns="http://www.w3.org/2000/svg" xmlns:xlink="http://www.w3.org/1999/xlink" y="0px"><style>
path {
  stroke: black;
  stroke-width: 4;
  stroke-linecap: round;
  stroke-linejoin: round;
  fill: none;
  opacity: 1;
}
</style>
<path d=" M314.464661,225.000000   C320.243866,209.758224 326.510132,194.525604 332.724213,179.271698   C337.433838,167.710922 342.092102,156.129105 346.732391,144.540298   C347.387665,142.903763 347.811157,141.174423 348.660431,138.476151   C338.111572,147.027054 328.609039,155.169159 317.202820,160.519867   C309.034637,164.351608 300.778015,167.765182 291.436249,167.406677   C281.469391,167.024200 273.746185,159.512604 273.680206,149.507614   C273.559998,131.272705 282.074951,116.653717 293.465576,103.339760   C300.480560,95.140289 309.124878,89.499847 319.797455,87.171021   C333.364990,84.210503 341.466736,92.922768 337.283356,106.163948   C334.238831,115.800606 327.396515,122.629547 319.780884,128.730896   C310.994598,135.770096 301.204895,141.017075 290.503906,144.601151   C288.434326,145.294312 284.814636,144.923279 285.657166,148.852982   C286.460266,152.598877 287.263580,156.426498 292.424438,156.775513   C298.470123,157.184372 304.067871,155.510468 309.323944,153.059723   C335.264404,140.964462 354.586853,122.359581 364.954956,95.248055   C366.366455,91.557137 368.404510,89.345879 372.655853,89.664291   C377.486786,90.026108 379.219116,92.294800 377.761566,96.991867   C376.788788,100.126747 375.566437,103.184174 374.072021,107.344574   C378.506561,104.037552 381.977386,101.339027 385.562134,98.801453   C391.067322,94.904465 397.167114,92.375053 403.798615,91.057671   C418.003662,88.235771 429.021210,100.537117 425.984802,115.971054   C424.418060,123.934746 420.932465,131.082596 416.335358,137.723282   C415.425293,139.037888 414.052368,140.114746 413.961243,142.543549   C420.861359,139.878204 426.194672,135.426559 431.430145,130.961090   C440.669098,123.080994 448.362549,114.068535 451.782227,101.998535   C452.679962,98.829758 454.383545,95.875488 455.838745,92.881859   C457.755371,88.938980 462.245605,87.146111 465.778442,89.136009   C469.705200,91.347824 468.523041,94.738876 467.158661,97.892250   C465.509277,101.704247 463.680573,105.438637 461.559479,110.002815   C469.622253,102.749847 477.423737,96.476944 487.018097,92.999023   C491.908905,91.226120 496.927063,89.930733 502.167999,90.917740   C514.057678,93.156906 519.980103,103.742905 516.866516,116.967499   C514.685425,126.231819 510.022003,134.233459 504.333923,141.720078   C503.444427,142.890823 502.579712,144.080414 500.775696,146.511734   C510.240601,143.202271 517.828918,139.354462 525.152100,134.944702   C533.974609,129.632095 540.691467,123.304047 544.340698,112.664749   C553.764893,85.188240 568.734680,60.562080 587.227356,38.132538   C592.016357,32.323986 597.181335,26.953505 603.944153,23.313868   C607.231567,21.544617 610.657104,21.301346 614.128174,21.801985   C618.928833,22.494381 621.567749,28.147871 620.877380,35.138969   C620.026306,43.755829 616.777100,51.590572 613.002441,59.189907   C598.681641,88.021599 579.153015,112.547890 552.625488,131.144379   C550.343567,132.744080 549.082458,134.470016 549.299622,137.297516   C549.439453,139.118286 549.254761,140.961517 549.284485,142.793564   C549.438477,152.277542 554.486877,156.271774 563.891663,154.338791   C573.617004,152.339935 581.706848,147.088959 589.489624,141.292297   C594.567627,137.510193 599.440430,133.483704 603.924072,128.977051   C606.029297,126.861046 608.788757,125.545334 611.467102,127.987007   C614.200500,130.478882 613.891052,133.565643 611.359802,135.907578   C597.616272,148.623474 583.489563,160.953857 564.629395,165.405258   C548.739746,169.155533 537.104065,159.674820 536.623962,143.238129   C536.600037,142.416550 536.533813,141.596237 536.435181,139.856445   C533.771606,141.331924 531.484924,142.465546 529.331604,143.812393   C510.736816,155.443207 490.584229,162.945435 468.908844,166.087509   C459.226471,167.491089 450.518646,164.592178 442.985535,157.127121   C434.280884,180.009384 425.840240,202.197586 417.199829,224.692902   C412.975464,225.000000 408.950897,225.000000 404.605164,224.663208   C404.988800,222.111816 405.564972,219.846237 406.419037,217.690781   C412.728821,201.766174 419.147736,185.884659 425.422668,169.946426   C429.504730,159.578033 433.402618,149.137146 437.569824,138.240280   C421.584869,150.719193 404.600708,159.512741 385.597229,164.233917   C374.468231,166.998779 363.806030,167.097382 354.500000,157.125473   C345.483429,180.219604 336.741699,202.609802 328.000000,225.000000   C323.643097,225.000000 319.286194,225.000000 314.464661,225.000000  M485.864868,104.333588   C471.040558,113.469864 460.130768,126.251183 451.671844,141.262299   C448.689545,146.554626 450.103088,150.723892 455.587555,153.448715   C459.858856,155.570831 464.466858,155.453049 468.716461,153.968399   C488.187286,147.166031 500.491302,133.385498 506.212463,113.784721   C508.220215,106.906151 503.184662,101.233162 496.023438,101.272919   C492.575012,101.292076 489.546295,102.566689 485.864868,104.333588  M408.649933,129.135696   C411.961792,123.511963 415.109833,117.814888 414.948364,111.003265   C414.790009,104.323494 411.089020,100.975060 404.458496,101.256546   C400.829865,101.410576 397.630768,102.786560 394.673492,104.673691   C380.215851,113.899506 370.015900,126.847679 362.589294,142.083893   C359.566620,148.285019 361.040283,151.273636 367.618530,153.772324   C370.699402,154.942566 373.752960,154.915421 376.894409,153.958527   C390.412720,149.840775 400.404266,141.188675 408.649933,129.135696  M601.873474,39.337738   C589.557312,51.524609 580.794373,66.246117 572.330811,81.137360   C566.550354,91.307716 561.012207,101.634743 557.065552,113.275497   C581.056824,96.188675 610.273682,48.885593 607.718506,36.661709   C605.433594,36.153473 604.149292,38.042713 601.873474,39.337738  M326.535736,103.069817   C326.224030,97.955490 324.701752,96.610680 320.091125,98.249741   C303.554840,104.128311 295.487000,117.633583 289.453217,132.869873   C289.378174,133.059372 289.725067,133.415939 290.053925,134.026901   C295.751343,132.152832 300.835388,129.017776 305.696106,125.608986   C314.033600,119.761955 322.238739,113.697960 326.535736,103.069817  z" data-duration="400" fill="none" opacity="1.000000" seq="2" stroke="black" stroke-linecap="round" stroke-linejoin="round" stroke-width="4"/>
<path d=" M160.556610,65.646103   C167.246445,50.376984 173.782990,35.454006 180.593185,19.906294   C175.451096,19.968256 171.614594,21.909590 167.723328,23.349319   C153.106964,28.757221 139.659790,36.386650 126.956779,45.361622   C123.258453,47.974567 120.107147,51.145416 117.289818,54.706921   C115.124123,57.444653 112.416916,59.843853 108.827484,57.107410   C105.203926,54.344948 106.282326,50.763390 108.510574,47.812019   C114.209106,40.264191 121.652489,34.613098 129.593597,29.637527   C151.285400,16.046333 174.631195,6.309087 200.062012,3.177743   C219.233093,0.817174 238.437561,2.225708 255.783905,12.278419   C274.152679,22.923670 281.686798,39.565971 281.459991,60.305710   C281.147308,88.897560 268.519379,112.209106 250.005966,132.787674   C223.939362,161.762054 190.650421,177.294891 152.636627,183.089432   C138.190506,185.291504 123.493202,186.080627 109.057381,182.271545   C103.562202,180.821564 98.241302,178.796738 94.249329,174.439606   C92.253082,172.260757 90.633690,169.844284 92.782982,166.886032   C94.777260,164.141174 98.029007,163.743637 100.436806,165.140198   C121.906509,177.593063 144.359909,173.436752 166.427658,168.477325   C206.013779,159.580887 236.974304,137.961090 257.654175,102.646812   C265.676819,88.946785 270.453430,74.160980 269.899353,57.998585   C269.208954,37.859772 258.478882,23.756037 239.206207,17.794209   C225.910095,13.681182 212.378342,13.544610 198.700485,15.283603   C196.259903,15.593895 195.275192,16.975863 194.441132,18.871914   C177.012466,58.491737 159.559830,98.101044 142.175842,137.740448   C139.839966,143.066818 137.808090,148.429489 138.217346,154.556351   C138.570480,159.842728 134.970291,162.898972 130.167038,162.307343   C126.139206,161.811218 123.166573,157.490097 124.068535,152.982040   C126.076347,142.946762 130.417114,133.718216 134.471283,124.428207   C142.994705,104.896935 151.745712,85.464966 160.556610,65.646103  z" data-duration="500" fill="none" opacity="1.000000" seq="1" stroke="black" stroke-linecap="round" stroke-linejoin="round" stroke-width="4"/>
<path d=" M901.273499,59.171303   C893.266235,74.921608 885.115967,90.196251 878.405762,107.490074   C882.420532,104.366158 885.452515,101.695366 888.785767,99.477272   C896.054993,94.639984 903.551758,90.300728 912.896301,92.564072   C920.694702,94.452927 925.616211,100.112144 926.318726,108.002129   C926.978516,115.412430 926.131042,122.592041 923.204956,129.492355   C914.703491,149.540817 900.694885,162.935501 878.610535,166.770691   C872.191467,167.885437 866.374207,166.568863 861.029846,163.074326   C859.348145,161.974686 858.170654,161.668427 856.115112,162.557068   C850.943848,164.792725 847.096741,161.557495 847.994568,155.995651   C848.467773,153.064743 849.196533,150.175095 849.883606,146.917343   C843.096985,152.041351 836.777100,157.203506 829.351440,160.698456   C828.749268,160.981873 828.169006,161.311508 827.567078,161.595245   C820.901062,164.737198 813.906250,167.313187 807.363525,162.156723   C801.356873,157.422775 802.426697,150.338120 803.171326,142.828552   C797.130737,149.599213 790.911499,155.224594 783.790161,159.780365   C779.985291,162.214508 776.035828,164.263931 771.658936,165.517960   C758.723755,169.224060 749.271729,161.326035 750.718140,147.942154   C753.075012,126.134575 776.788025,98.248703 798.142334,92.508461   C807.324707,90.040161 816.333191,89.624809 823.192871,98.056114   C824.486938,99.646591 825.933228,98.696259 827.328552,98.693413   C832.308044,98.683243 834.733582,101.750397 833.262634,106.500290   C832.066956,110.361298 829.758972,113.645271 827.394592,116.887482   C821.068420,125.562195 815.825867,134.741776 813.743469,145.477951   C813.181152,148.377045 813.485352,150.898361 815.703430,152.750580   C817.941956,154.619965 820.524353,153.773575 822.735596,152.515030   C840.500488,142.404190 856.082031,130.401642 864.333374,110.529945   C875.958313,82.533470 889.884583,55.585415 903.501648,28.512739   C905.401245,24.736046 909.497192,23.038534 912.974548,24.795559   C916.886536,26.772215 915.629089,30.214994 914.563965,33.056473   C911.163330,42.128765 906.018677,50.348392 901.273499,59.171303  M913.798950,122.301643   C914.377808,120.051201 915.192261,117.830879 915.484741,115.543816   C916.031616,111.267143 915.503967,107.206810 911.789490,104.264481   C908.214417,101.432510 904.578979,102.573532 900.990417,104.182686   C899.326111,104.929001 897.698242,105.794601 896.154907,106.766609   C886.046570,113.133133 877.761047,121.563545 869.893005,130.403854   C867.346375,133.265167 865.775757,136.885376 864.729187,140.582642   C862.720825,147.677017 866.861755,155.650238 873.057129,156.259933   C876.674500,156.615906 880.298279,155.601761 883.676758,154.104507   C897.859375,147.819260 908.357300,137.970352 913.798950,122.301643  M805.497803,124.986496   C808.589905,120.843781 811.365906,116.504250 813.592712,111.831429   C815.754822,107.294373 814.278442,103.782951 809.524475,102.693344   C807.801758,102.298515 805.854126,102.386765 804.096558,102.718208   C784.015747,106.505226 765.478027,131.287659 762.812439,149.155624   C762.297729,152.605652 764.189575,154.897339 768.096680,154.670120   C771.719482,154.459427 774.783691,152.711914 777.749329,150.890030   C788.529907,144.267242 797.101562,135.235626 805.497803,124.986496  z" data-duration="600" fill="none" opacity="1.000000" seq="4" stroke="black" stroke-linecap="round" stroke-linejoin="round" stroke-width="4"/>
<path d=" M743.488831,59.520203   C750.819824,50.259380 756.242615,40.428646 758.975525,29.222654   C759.485657,27.130939 760.582336,24.737644 758.444946,23.234056   C756.156494,21.624271 753.965027,23.402029 752.084778,24.669430   C745.148865,29.344656 740.473999,36.040123 736.136963,42.994747   C724.314453,61.952785 714.327332,81.906708 704.218384,101.797600   C694.414917,121.087410 685.047058,140.617371 673.284180,158.846848   C672.756958,159.663971 672.041626,160.445755 672.473450,161.998230   C680.657654,163.685837 689.071777,165.312668 697.435486,167.166840   C718.216980,171.773911 738.199341,179.293686 758.906494,184.167801   C772.647156,187.402115 786.483276,188.340668 800.385010,185.042480   C803.578430,184.284851 806.643066,184.431473 807.837769,188.029724   C808.983032,191.478989 806.354675,193.245743 803.761353,194.529724   C794.521912,199.104248 784.727661,199.795624 774.595520,198.843445   C752.712830,196.786987 732.312378,188.856415 711.358398,183.146194   C696.930298,179.214355 682.377808,175.973480 667.633606,173.524994   C664.680420,173.034546 662.626038,174.014267 660.610657,176.168015   C653.434204,183.837097 646.076904,191.384094 637.014099,196.858231   C629.412720,201.449585 621.383545,203.054489 612.208191,201.708511   C603.174194,200.383286 598.079346,187.980988 604.975891,179.754730   C613.503052,169.583374 624.899902,165.080322 637.416504,162.724564   C642.297485,161.805878 647.272644,161.046051 652.221191,160.934097   C656.242004,160.843155 658.616211,159.171524 660.713318,155.994507   C672.674133,137.874695 682.060547,118.353531 691.816833,99.041679   C702.929443,77.045197 713.841003,54.953442 727.234253,34.200745   C731.422363,27.711395 736.346191,21.901939 742.066589,16.758223   C745.716858,13.475906 749.992432,11.251177 754.755493,10.069325   C763.212952,7.970805 769.662842,12.756477 770.326111,21.502584   C770.736450,26.913309 769.730103,32.088177 767.956482,37.169750   C764.515564,47.028446 759.319885,55.896793 752.730896,63.943748   C751.060730,65.983482 749.066895,67.825203 746.972351,69.433014   C744.497986,71.332443 741.441650,72.706245 738.853027,70.047089   C735.968689,67.084358 739.009094,65.009430 740.732239,62.892262   C741.573181,61.859169 742.428650,60.837925 743.488831,59.520203  M643.396362,173.468887   C641.436523,173.803604 639.453369,174.038696 637.520935,174.490417   C629.515259,176.361755 621.847046,178.972061 615.993408,185.164902   C614.842407,186.382629 613.761597,187.924255 614.804871,189.636490   C615.729553,191.154160 617.268372,191.557693 619.143188,191.254852   C630.617676,189.401321 638.527222,182.114655 646.825012,173.841599   C645.265015,173.636810 644.636353,173.554276 643.396362,173.468887  z" data-duration="700" fill="none" opacity="1.000000" seq="3" stroke="black" stroke-linecap="round" stroke-linejoin="round" stroke-width="4"/>
</svg>