<?xml version="1.0" encoding="utf-8"?>
<svg enable-background="new 0 0 1024 224" fill="none" height="auto" id="Layer_1" version="1.1" viewBox="33 -80 969 386" width="100%" x="0px" xml:space="preserve" xmlns="http://www.w3.org/2000/svg" xmlns:xlink="http://www.w3.org/1999/xlink" y="0px"><style>
path {
  stroke: black;
  stroke-width: 4;
  stroke-linecap: round;
  stroke-linejoin: round;
  fill: none;
  opacity: 1;
}
</style>
<path d=" M408.463196,225.000000   C409.157410,216.864456 412.786285,209.517654 415.511200,201.898499   C421.844543,184.189743 428.568451,166.626236 436.368256,149.495361   C436.908112,148.309677 437.223999,147.022018 437.837006,145.211975   C435.094421,145.607117 433.828522,147.385910 432.253693,148.653839   C421.840515,157.037949 411.273254,165.086273 397.613190,167.609985   C384.924072,169.954300 375.228577,163.545959 372.677246,150.867554   C372.520966,150.090973 372.453430,149.296555 372.249573,147.823959   C368.099670,150.851044 364.480377,153.695297 360.659424,156.236328   C352.293518,161.799896 343.470245,166.151093 333.358551,167.906342   C316.982117,170.749084 303.687805,157.867218 306.992584,141.458344   C310.532745,123.881020 318.694458,108.637955 331.780304,96.219002   C337.869446,90.440170 345.080231,86.511253 353.500061,86.031746   C366.449310,85.294273 373.379303,91.183327 369.436340,105.541283   C366.699738,115.506294 358.492798,121.650726 350.677704,127.635353   C342.553436,133.856735 333.633484,138.784149 323.494171,140.828537   C318.959290,141.742889 318.892883,144.534790 319.556702,147.829147   C321.042389,155.202484 328.263855,158.399506 337.586029,156.153152   C348.629608,153.492004 357.348358,146.835632 366.002655,140.003525   C371.175812,135.919586 374.897064,131.100128 377.455048,124.758194   C382.874329,111.322281 390.689850,99.400665 403.294037,91.310883   C408.182831,88.173119 413.478912,86.470238 419.200348,85.970757   C431.561707,84.891609 438.337250,93.498550 434.600403,105.422356   C432.905304,110.831093 429.590851,115.196381 425.708557,119.119270   C416.074524,128.854065 404.965057,136.296188 391.722839,140.260712   C388.470764,141.234344 384.622528,141.290619 385.306671,146.552658   C385.964447,151.611832 389.112579,155.883362 393.603241,156.549026   C396.419891,156.966553 399.198700,156.619095 401.963257,155.700989   C412.655823,152.149979 421.312256,145.364105 429.626923,138.155472   C435.661713,132.923462 441.708771,127.581535 446.948120,121.587402   C453.544800,114.040405 455.870483,104.232330 458.497986,94.840248   C459.761963,90.322037 462.346313,88.423782 466.403778,87.838310   C471.172211,87.150253 474.033630,90.533409 472.597931,95.170753   C471.425232,98.958763 469.899567,102.637482 468.359772,106.829124   C470.775116,106.587151 471.683350,104.936897 472.865540,103.742348   C478.158081,98.394501 483.586212,93.172165 490.790100,90.481743   C497.552338,87.956230 504.450989,86.854172 510.715393,91.712143   C517.490112,96.965889 518.813782,104.207550 517.776978,112.305031   C516.425903,122.857635 511.701080,131.908279 505.781250,140.479477   C504.561737,142.245148 503.299805,143.981491 502.326141,146.079575   C509.385986,143.182373 515.323120,138.522247 521.545349,134.315643   C528.713135,129.469711 532.769287,123.165802 535.132629,114.487907   C543.010681,85.561127 557.336365,59.675079 575.304871,35.786850   C578.510437,31.525171 582.416077,27.811674 586.657898,24.575787   C593.084717,19.672995 599.022583,19.069151 604.215027,22.417847   C608.688538,25.302896 610.464661,31.885597 608.885864,39.152401   C606.661194,49.392056 602.020752,58.591415 596.594727,67.398743   C582.357666,90.507675 565.527344,111.482430 545.007812,129.383286   C541.041809,132.843140 539.448792,146.769867 542.602356,150.986618   C544.866577,154.014084 547.907043,155.276901 551.824585,154.062271   C559.654175,151.634720 566.118896,146.993256 572.167358,141.711273   C576.930664,137.551620 581.569885,133.255478 585.585754,128.311676   C587.325684,126.169762 589.610229,123.403168 592.648743,125.564758   C595.713257,127.744896 594.615723,131.086182 592.783386,133.610992   C582.292908,148.066208 569.357422,159.618851 552.137085,165.298981   C540.731445,169.061172 529.316345,160.500931 528.655640,148.422455   C528.558533,146.646637 529.112915,144.769501 528.019165,143.079727   C526.240173,142.580292 525.263672,143.904709 524.065918,144.706543   C509.410004,154.517822 493.606628,161.802841 476.463196,166.026947   C464.814545,168.897171 457.700562,166.913147 446.495087,157.745621   C436.152130,179.341812 428.050537,201.552094 421.158356,224.648193   C416.975464,225.000000 412.950897,225.000000 408.463196,225.000000  M483.032928,148.529037   C489.263611,143.373657 494.126556,137.044922 498.213531,130.158859   C502.125671,123.567429 505.614075,116.711632 505.623871,108.752975   C505.632477,101.769020 501.443268,98.716118 494.777374,100.863503   C491.115448,102.043175 487.740906,103.944534 484.764099,106.361473   C472.596008,116.241203 463.195465,128.431549 455.403992,141.939575   C454.258667,143.925247 453.809143,145.859039 454.959351,148.063065   C457.710205,153.334213 465.382172,156.760757 471.183228,155.185165   C475.444885,154.027664 479.053223,151.676941 483.032928,148.529037  M579.580017,75.096725   C583.012939,69.597733 586.569519,64.171227 589.846375,58.580772   C593.641602,52.106045 596.506348,45.209389 598.303162,37.895779   C598.671875,36.395180 598.982361,34.811161 597.499512,33.812206   C595.934265,32.757744 594.518127,33.886806 593.484497,34.844543   C591.051453,37.098812 588.643677,39.426609 586.541626,41.984303   C573.247620,58.160286 563.449280,76.477295 554.438293,95.231331   C551.966431,100.375877 549.337097,105.564178 548.748840,111.557861   C560.613831,101.017929 570.003357,88.448975 579.580017,75.096725  M342.869568,121.373230   C348.670135,116.785728 353.654938,111.484039 356.754883,104.688515   C357.795929,102.406357 359.768372,99.789314 357.204773,97.394264   C354.781616,95.130432 352.058411,96.605911 349.815460,97.879822   C337.183929,105.053993 328.697479,115.765045 323.617523,129.272430   C323.544464,129.466675 323.901642,129.822708 324.308899,130.553192   C330.949249,129.106430 336.639709,125.523735 342.869568,121.373230  M415.175812,97.623108   C402.069489,104.982780 394.057281,116.347687 389.103699,130.183243   C404.055878,125.993866 415.506500,117.660271 422.229248,103.642372   C423.106110,101.813988 424.028992,99.368324 422.320404,97.500175   C420.407837,95.409004 418.048248,96.476501 415.175812,97.623108  z" data-duration="400" fill="none" opacity="1.000000" seq="1" stroke="black" stroke-linecap="round" stroke-linejoin="round" stroke-width="4"/>
<path d=" M820.978638,126.941833   C826.111084,120.848732 826.996643,113.314079 829.631531,106.550537   C839.469788,81.296394 852.117188,57.552696 867.071167,34.992001   C870.040405,30.512354 873.735596,26.665918 877.548035,22.959797   C880.882202,19.718649 884.698364,17.404751 889.682678,19.632454   C894.442871,21.760012 895.071289,26.026155 895.322449,30.435116   C895.703125,37.116535 893.313721,43.210690 890.867004,49.209339   C885.415405,62.574986 877.312439,74.398300 868.968994,86.063583   C866.480957,89.542168 863.989319,93.018158 861.739929,97.014786   C870.301941,94.744469 878.848633,91.890289 886.505737,98.135674   C894.226685,104.433075 892.549500,113.287010 891.637817,122.421951   C897.487061,121.761368 902.080933,118.846802 906.735840,116.261452   C909.191528,114.897583 911.355408,113.007774 913.648621,111.352074   C915.315247,110.148804 916.996521,108.899216 918.957092,110.802063   C920.793152,112.583908 920.770386,114.775932 919.637878,116.767334   C917.971741,119.697144 915.449463,121.957283 912.732422,123.901138   C906.290710,128.509735 899.173950,131.816910 891.400513,133.222870   C887.721558,133.888260 885.537537,135.534653 883.676819,138.626068   C875.872375,151.592163 865.346680,161.377609 850.596802,166.013870   C845.073059,167.750122 839.379944,168.144562 833.833313,166.822800   C823.750366,164.419983 819.040222,157.340469 818.413574,147.261688   C815.984558,146.667801 815.030579,148.604355 813.811218,149.720703   C809.481262,153.684677 804.695068,156.991714 799.612610,159.865112   C784.833923,168.220352 775.115417,163.311081 773.202148,145.908859   C767.776123,150.462662 763.220886,155.438889 757.810303,159.408646   C753.883911,162.289444 749.871094,164.910950 745.247437,166.471985   C736.189148,169.530243 727.559448,163.687546 726.634705,154.136841   C725.853760,146.070129 727.414856,138.537094 731.321899,131.529770   C739.888062,116.166161 750.661316,102.785156 766.304871,94.040207   C771.582397,91.090012 777.227905,89.382011 783.456421,89.580124   C788.903809,89.753387 793.143982,91.681435 796.022095,96.323097   C797.120422,98.094345 798.181702,99.184418 800.646790,99.303780   C805.905701,99.558449 807.558228,103.346046 804.175232,107.548782   C798.693970,114.358391 794.921997,122.154694 790.596863,129.638809   C788.068054,134.014664 786.616333,138.790466 785.605042,143.688126   C785.022461,146.509293 784.952393,149.405640 787.609924,151.443787   C790.292786,153.501389 792.784241,151.897339 795.036011,150.653351   C805.456177,144.896667 812.952942,135.883667 820.978638,126.941833  M840.395752,125.869011   C834.171082,131.258591 830.471069,137.657730 831.207214,146.307861   C831.824219,153.557541 836.969116,157.615311 844.134033,156.012497   C855.469666,153.476730 863.559692,146.217865 870.620667,137.632904   C875.529358,131.664703 878.925659,124.808937 880.428589,117.166962   C882.066956,108.836662 876.865234,103.964668 868.579834,105.856468   C865.142090,106.641418 861.975769,107.979385 858.976318,109.830414   C852.118958,114.062233 846.482910,119.696121 840.395752,125.869011  M770.089600,134.592682   C776.053650,126.860764 782.724792,119.588142 785.687317,109.940186   C786.599670,106.968864 787.406616,104.103043 784.635559,101.687691   C781.897522,99.301109 778.796570,100.114281 776.238831,101.593285   C758.249756,111.995468 744.409912,125.922256 738.812744,146.662842   C737.964844,149.804764 738.177185,152.769104 740.881042,154.780167   C743.709351,156.883728 746.287354,154.975433 748.621521,153.418839   C756.401733,148.230484 763.066467,141.742920 770.089600,134.592682  M863.040649,62.434551   C860.793945,66.516418 858.482361,70.564247 856.319153,74.689903   C854.232422,78.669868 852.171387,82.673027 850.334229,86.771408   C848.523987,90.809784 846.128967,94.684265 846.145081,99.414696   C860.866638,78.550735 877.684509,58.924294 884.034363,33.291664   C875.667175,41.768616 869.362976,51.663296 863.040649,62.434551  z" data-duration="500" fill="none" opacity="1.000000" seq="2" stroke="black" stroke-linecap="round" stroke-linejoin="round" stroke-width="4"/>
<path d=" M736.782654,69.764954   C723.957153,83.028282 709.339172,92.946365 692.278442,99.139671   C690.369385,99.832703 688.527893,100.484978 687.596008,102.530380   C679.524170,120.246323 670.544434,137.477310 659.609985,153.845871   C663.037415,156.337723 666.825012,156.435181 670.270874,157.285965   C690.500671,162.280655 709.737061,170.293884 729.552429,176.533585   C741.811584,180.393921 754.150085,182.357559 766.662109,177.547638   C768.297791,176.918854 769.856750,176.691803 771.208313,178.261810   C772.717224,180.014664 771.973877,181.641006 771.148193,183.337341   C769.735718,186.239487 767.183167,187.724106 764.378418,188.937897   C751.976013,194.305344 739.599976,192.257156 727.326904,188.592285   C708.855713,183.076569 691.052002,175.481339 672.316711,170.779251   C666.846069,169.406281 661.259766,168.466614 655.840698,166.926453   C652.498840,165.976669 650.603394,167.014389 648.731323,169.685120   C643.240234,177.518707 636.894348,184.545212 628.462097,189.371857   C619.551453,194.472351 610.007751,196.269592 600.130798,193.306320   C587.658630,189.564392 584.606262,174.981720 594.468689,166.381241   C604.337524,157.775192 616.256042,153.841034 629.158752,152.679947   C631.962769,152.427612 634.953735,151.692413 637.564026,152.349625   C644.179626,154.015305 647.630432,151.101044 650.637390,145.615204   C656.877686,134.230515 663.943726,123.305435 669.606567,111.589409   C672.745483,105.095360 672.354431,104.417183 664.902954,104.316284   C659.384888,104.241577 653.943665,103.549393 648.757874,101.630569   C643.300659,99.611298 639.386292,95.935020 637.940186,90.122223   C637.252747,87.359230 637.689148,84.582893 640.247375,83.011475   C642.908813,81.376640 644.380920,83.557991 645.947266,85.410683   C649.149353,89.198021 653.758850,90.763969 658.314392,91.320747   C664.061157,92.023109 669.945679,91.644295 675.770813,91.641602   C679.482605,91.639885 680.167419,88.466751 681.201782,85.938560   C687.003052,71.758743 693.045654,57.682652 699.935547,43.998852   C705.639893,32.669491 711.858948,21.645002 721.535950,13.044692   C726.349365,8.766874 731.655396,5.502516 738.045593,4.190389   C756.346619,0.432548 763.243225,13.607493 760.838623,26.362434   C757.655640,43.245937 748.492737,57.072186 736.782654,69.764954  M728.709839,62.217857   C735.042908,55.306873 740.199219,47.572853 744.261169,39.159340   C746.858459,33.779572 749.128540,28.214487 748.660034,21.993397   C748.267395,16.778332 745.120667,14.661169 740.222961,16.282616   C737.656555,17.132240 735.378601,18.471670 733.268127,20.108877   C726.199280,25.592655 720.823486,32.533680 716.230469,40.122658   C708.203552,53.385471 701.871582,67.474060 696.066467,81.812439   C695.539551,83.113770 694.454834,84.358498 695.317688,86.414925   C708.030273,80.786880 718.933838,72.899063 728.709839,62.217857  M632.227417,171.733322   C633.983582,169.665527 636.574646,168.174576 637.242126,164.433060   C626.798889,164.111328 617.104858,165.172653 608.156250,170.169647   C606.297424,171.207596 604.519714,172.555359 603.048157,174.089798   C599.505615,177.783691 600.449768,181.054626 605.428772,182.455551   C606.994934,182.896210 608.727051,182.916428 610.375366,182.867081   C619.108582,182.605545 625.568604,177.706589 632.227417,171.733322  z" data-duration="600" fill="none" opacity="1.000000" seq="3" stroke="black" stroke-linecap="round" stroke-linejoin="round" stroke-width="4"/>
<path d=" M187.923187,168.694336   C218.332886,164.048462 244.576660,151.756805 266.475433,130.611847   C281.640930,115.968353 292.777924,99.024200 297.084900,77.964417   C303.545044,46.376358 286.162476,20.394672 254.144379,16.469709   C210.695389,11.143480 172.168213,23.250166 139.375916,52.493797   C133.626160,57.621334 129.479126,64.103119 127.149925,71.650436   C126.199318,74.730713 126.183678,77.564751 127.702881,80.314880   C128.925888,82.528801 129.922638,84.599792 127.167221,86.322197   C124.644325,87.899277 122.020439,87.944138 119.839211,85.804573   C115.181892,81.236229 113.701126,75.652374 115.274269,69.343758   C118.762238,55.356373 127.780762,45.174847 138.816788,36.779602   C163.591797,17.932964 191.530457,6.931790 222.561356,3.469046   C242.567413,1.236567 261.703949,3.114232 279.742798,12.563584   C299.751190,23.044624 309.387787,39.955616 310.335785,62.171310   C311.495941,89.359016 300.038452,111.634781 282.520142,131.173523   C258.407776,158.066864 227.900513,173.673004 192.616562,180.277740   C175.053284,183.565384 157.566269,183.441177 140.332016,178.230057   C133.899261,176.285019 127.944176,173.368042 123.138702,168.471359   C120.558022,165.841705 119.072701,162.828751 119.478302,159.052582   C119.694153,157.042908 120.738785,155.606262 122.574142,154.864426   C124.270622,154.178726 125.750626,154.555511 127.077019,155.958984   C136.861298,166.311890 149.930206,168.380737 163.080673,169.468384   C171.156769,170.136322 179.391724,170.386688 187.923187,168.694336  z" data-duration="700" fill="none" opacity="1.000000" seq="4" stroke="black" stroke-linecap="round" stroke-linejoin="round" stroke-width="4"/>
<path d=" M167.096680,127.231003   C181.463470,94.758743 197.005249,63.298798 214.196930,32.664696   C215.570572,30.216982 217.221146,27.851212 219.110428,25.782995   C222.202057,22.398611 225.900864,22.096180 228.798203,24.780401   C231.840546,27.598984 231.103256,30.651878 229.107758,33.742935   C207.188248,67.696671 190.515930,104.307487 174.725754,141.357056   C172.181396,147.327042 170.350174,153.562088 169.422485,160.006866   C169.148941,161.907196 169.072159,163.769882 166.747650,164.184647   C164.561142,164.574799 162.378342,164.538391 160.732300,162.714813   C158.357376,160.083755 157.634766,157.072174 158.224976,153.510117   C159.737457,144.381592 163.727829,136.119553 167.096680,127.231003  z" data-duration="800" fill="none" opacity="1.000000" seq="5" stroke="black" stroke-linecap="round" stroke-linejoin="round" stroke-width="4"/>
</svg>