<?xml version="1.0" encoding="utf-8"?>
<svg enable-background="new 0 0 1024 672" fill="none" height="auto" id="Layer_1" version="1.1" viewBox="15 90 885 492" width="100%" x="0px" xml:space="preserve" xmlns="http://www.w3.org/2000/svg" xmlns:xlink="http://www.w3.org/1999/xlink" y="0px"><style>
path {
  stroke: black;
  stroke-width: 4;
  stroke-linecap: round;
  stroke-linejoin: round;
  fill: none;
  opacity: 1;
}
</style>
<path d=" M250.500092,403.500000   C221.787140,429.528290 190.914764,451.663666 154.966110,465.898407   C142.370697,470.885895 129.287491,474.003662 115.500656,473.338104   C102.307854,472.701233 91.141060,463.943085 89.256950,452.150299   C88.326942,446.329346 90.045486,440.928497 92.528877,435.755341   C98.752953,422.789978 109.012367,413.189148 119.751564,404.199341   C162.781433,368.178772 213.329575,347.977661 267.170929,334.897278   C275.411804,332.895264 283.759064,331.320374 292.081360,329.670197   C294.689880,329.152954 296.718658,328.046204 298.202667,325.810883   C316.464783,298.303040 331.447754,269.265350 339.357819,236.979446   C341.222565,229.368408 341.984161,221.600632 341.730804,213.704163   C341.177246,196.452927 329.876068,184.440811 312.849121,182.199234   C294.587677,179.795166 278.379547,185.526138 262.490601,193.306488   C253.330368,197.791992 245.033188,203.654190 236.593796,209.301773   C233.803650,211.168915 232.422684,213.921432 231.071228,216.803070   C216.865372,247.093094 203.533798,277.753021 192.204727,309.248199   C186.067795,326.309082 180.170792,343.456116 174.122467,360.549042   C172.128571,366.183899 168.542953,367.299774 164.374146,363.800537   C161.999741,361.807556 162.367691,359.399139 163.118912,356.943939   C171.108566,330.831573 179.725418,304.927124 189.315125,279.357941   C194.927734,264.392975 200.570358,249.432190 207.892380,233.545822   C199.648956,240.912140 193.172760,248.018494 186.883423,255.298386   C179.150314,264.249481 171.816345,273.507111 165.491257,283.533630   C163.527618,286.646332 160.694763,288.561523 157.064041,286.721436   C153.597595,284.964600 153.074509,281.590881 153.991241,278.052948   C155.796066,271.087799 160.238556,265.572052 164.386902,259.974701   C179.337906,239.801285 196.854370,222.053635 216.127121,206.011948   C218.195114,204.290634 220.149429,202.546890 221.410843,200.112564   C226.311035,190.655960 231.272629,181.231094 236.151703,171.763672   C238.356796,167.484879 241.742981,166.410461 246.570847,168.627991   C251.265839,170.784470 252.250061,173.493500 250.079742,178.252975   C249.278397,180.010345 248.498062,181.777313 247.399902,184.227661   C255.112503,181.803589 261.376465,177.935806 268.338135,175.723770   C286.824890,169.849655 305.321228,167.304794 324.175385,173.937469   C342.418274,180.355103 355.432831,198.223419 356.232391,217.593185   C356.811676,231.627625 353.746246,244.954330 349.613831,258.229187   C342.432190,281.299072 331.559326,302.546295 318.735291,322.891907   C318.389771,323.440094 318.178864,324.073090 317.906128,324.664459   C319.064606,326.363770 320.701569,325.674866 322.060883,325.593994   C326.210876,325.347076 330.356476,324.551971 334.491272,324.630524   C341.386810,324.761505 345.570099,321.993225 348.734344,315.618591   C353.819244,305.374664 361.352905,296.850311 370.880035,290.300598   C374.746307,287.642609 378.732330,285.123291 383.793030,286.053009   C394.477936,288.016022 399.746552,297.806091 394.946991,307.591919   C387.913269,321.932831 375.937714,329.537903 360.241669,331.122437   C356.704651,331.479523 354.797546,332.904999 353.380768,335.810791   C350.601044,341.511963 349.595062,347.499176 350.339142,353.776855   C350.756134,357.294830 352.670227,359.009247 356.354645,359.028931   C362.007538,359.059082 367.210968,357.467102 372.218933,355.098114   C382.641663,350.167633 392.402924,344.120056 401.791382,337.442871   C404.119751,335.786835 405.050446,333.326019 406.183167,330.913696   C412.206329,318.086456 420.305939,306.751282 431.082001,297.510498   C435.775482,293.485748 440.847656,289.865356 447.779449,291.709381   C455.845856,293.855164 460.150208,300.984833 457.704468,308.968872   C453.025818,324.242157 438.905518,338.603180 421.544708,337.312134   C418.853088,337.111938 417.153351,338.230408 415.905457,340.522186   C414.283722,343.500580 413.316162,346.583099 413.193481,350.016113   C412.877197,358.867737 416.452240,361.658264 424.843170,358.463348   C436.698303,353.949463 446.541138,346.165741 456.153412,338.165192   C462.166443,333.160431 467.767059,327.663055 473.635986,322.480988   C476.079529,320.323425 477.683044,317.668854 479.092896,314.808380   C482.185852,308.532898 485.308990,302.271790 488.479767,296.035309   C490.336823,292.382782 493.245911,290.763092 497.104004,292.737427   C500.767395,294.612091 501.801941,297.479370 499.755096,301.466003   C497.479462,305.898163 495.644287,310.556427 493.027710,316.442627   C497.695099,311.964172 501.158905,308.191559 505.209473,305.043091   C510.943085,300.586334 516.960693,298.772644 523.756897,302.133453   C530.623657,305.529144 532.553406,311.535248 532.445007,318.763123   C532.371948,323.636780 530.623535,328.177277 529.898743,334.209320   C537.381409,329.819977 545.262756,328.730896 548.947144,319.678955   C561.706238,288.332520 576.017029,257.694550 594.868286,229.420563   C597.074829,226.111115 599.705994,223.059052 602.358643,220.082214   C604.024414,218.212830 606.151184,216.899811 608.845886,216.709564   C617.087158,216.127716 620.727417,220.318451 619.053040,228.945892   C617.744446,235.688507 614.938782,241.953903 612.064148,248.147476   C598.720886,276.896362 580.664368,302.519196 560.989990,327.261597   C553.526489,336.647675 550.645691,348.825348 551.458130,361.171082   C551.840820,366.987640 556.326843,369.168732 562.081665,366.754852   C570.797791,363.098877 578.122925,357.291840 585.137573,351.104797   C590.259644,346.587036 595.197632,341.861298 600.274841,337.291748   C601.752625,335.961731 603.392517,334.801086 605.024231,333.657135   C606.001587,332.971985 607.146179,332.509644 608.213013,333.514282   C609.291138,334.529602 608.828613,335.724060 608.245422,336.724213   C606.821472,339.166077 605.528870,341.748230 603.735107,343.900269   C593.122864,356.631958 581.795654,368.433807 565.905334,374.850616   C554.381226,379.504242 538.861389,372.935333 540.344299,353.130249   C540.638794,349.197083 541.207153,345.284393 541.817627,339.868927   C533.741760,344.752533 524.467407,344.614655 519.266541,352.841583   C514.891235,359.762665 509.533417,365.945892 502.856201,370.846985   C500.006897,372.938354 496.966980,374.660797 493.434296,375.245056   C484.501282,376.722351 477.903992,368.818024 480.876160,360.287659   C482.370148,355.999756 485.229614,352.920502 488.949005,350.433197   C495.248016,346.220886 502.250214,343.524963 509.293488,340.980072   C512.582642,339.791656 514.521240,337.839111 515.661133,334.595154   C518.288086,327.118958 521.911804,319.871521 520.442444,311.349243   C517.096191,310.693329 514.750671,312.309570 512.521362,313.965424   C497.177551,325.362396 485.221893,339.737915 475.568878,356.135162   C464.555511,374.843292 457.205627,395.341278 447.023529,414.454163   C446.005493,416.365234 444.966278,418.265106 443.926910,420.164764   C442.139435,423.431854 439.467804,423.932404 436.296936,422.458588   C432.915924,420.887115 433.637848,418.281433 434.808777,415.687592   C442.004211,399.748596 449.274994,383.843384 456.409729,367.877319   C460.271545,359.235291 463.913605,350.494995 466.940765,341.232239   C460.994812,346.081604 455.100677,350.996277 449.089264,355.763062   C442.268158,361.171875 435.054626,365.942566 426.511444,368.247131   C413.571533,371.737793 404.015106,366.001495 401.068298,353.016205   C400.886688,352.215973 400.761658,351.402924 400.436707,349.670319   C394.525757,354.167664 388.647552,357.763641 382.668579,361.190582   C377.305695,364.264404 371.812531,367.040649 365.722504,368.382599   C347.859222,372.318756 334.666229,359.442566 337.998871,341.334930   C338.443329,338.920105 338.959381,336.518463 339.581024,333.418762   C333.519806,333.816498 328.089508,334.624573 322.695404,334.429565   C312.491425,334.060730 306.802795,339.513336 301.251709,347.451996   C286.802460,368.115997 269.554474,386.433868 250.500092,403.500000  M156.859833,389.400543   C140.523300,399.855469 125.156044,411.540985 112.046272,425.911682   C105.583191,432.996368 100.005798,440.675171 100.897057,451.179352   C101.473991,457.979034 105.630798,462.883026 112.337791,463.505768   C116.791573,463.919312 121.288742,463.936859 125.781509,463.163330   C144.469498,459.946014 161.522644,452.382538 177.542877,442.709900   C219.113556,417.610657 253.853622,384.818939 283.656616,346.655029   C285.001282,344.933105 286.816681,343.297668 286.867432,340.011108   C240.769806,349.393036 197.398254,364.595398 156.859833,389.400543  M377.632935,302.109650   C371.789764,307.551331 366.496674,313.425262 362.781982,320.726624   C373.654846,320.343536 387.246033,306.584167 385.764557,297.397858   C382.578186,297.669067 380.367157,299.651306 377.632935,302.109650  M439.367706,318.856262   C443.466125,314.282288 446.997528,309.396545 448.541748,302.003540   C436.734863,307.644012 430.915070,317.364471 423.774292,327.692291   C431.058960,326.914490 435.080658,323.345215 439.367706,318.856262  M587.995667,274.510345   C594.751526,262.184235 601.726807,249.963440 606.257629,236.557465   C594.950867,253.711716 585.022827,271.601105 577.324585,290.761108   C580.759888,285.554230 584.195190,280.347351 587.995667,274.510345  M493.231995,363.571045   C495.933502,361.952515 498.206818,359.910187 500.229706,356.818207   C494.677856,359.271942 493.150726,360.747894 493.231995,363.571045  z" data-duration="400" fill="none" opacity="1.000000" seq="1" stroke="black" stroke-linecap="round" stroke-linejoin="round" stroke-width="4"/>
<path d=" M591.847534,400.886505   C609.271545,370.913788 624.467224,340.201019 639.675659,309.309723   C636.938049,308.212494 635.322449,309.792572 633.602173,310.508575   C629.083679,312.389221 624.504639,313.680573 619.543152,313.372955   C617.285645,313.233002 615.266602,312.669342 613.680725,311.013428   C612.690308,309.979279 612.229309,308.720856 612.978271,307.367981   C613.615173,306.217438 614.759216,306.148499 615.991028,306.061035   C631.865662,304.933502 644.777710,298.584198 652.248901,283.967468   C664.453674,260.089966 675.507446,235.618942 689.140320,212.480759   C697.271362,198.680374 705.916016,185.217392 717.413269,173.902115   C721.695984,169.687225 726.408569,165.923096 732.714600,165.031570   C743.701782,163.478287 749.842773,169.959991 747.422729,180.677383   C745.003540,191.390839 739.921753,201.012604 734.189270,210.171219   C716.941162,237.728210 696.325500,262.600494 671.699341,283.829834   C664.460815,290.069824 660.760498,297.888550 656.725159,305.815826   C641.843506,335.050659 627.484558,364.556091 611.234436,393.076904   C609.289001,396.491486 607.300720,399.881653 605.052551,403.766418   C613.560852,404.249329 621.264038,402.810669 629.013733,402.477203   C656.656250,401.287781 684.274719,400.655457 711.871277,403.483154   C725.659180,404.895966 739.321594,406.848755 752.298706,411.955200   C757.585999,414.035736 762.672974,416.642761 765.493103,422.053406   C766.303711,423.608765 766.771729,425.310516 765.193542,426.612122   C763.638367,427.894745 761.918640,427.299957 760.651367,426.103424   C751.857361,417.800262 740.586487,416.064178 729.372314,414.436005   C700.229004,410.204803 670.935181,410.577209 641.619629,411.957520   C628.150879,412.591705 614.704224,413.386322 601.311279,415.082367   C598.067749,415.493164 595.724792,416.675354 593.628723,419.040619   C587.637085,425.801971 581.242493,432.109650 573.002808,436.184967   C568.073425,438.623016 563.129150,440.047485 557.690796,437.565704   C549.443542,433.802124 547.958252,423.630676 554.851074,417.333313   C559.590271,413.003510 565.583252,411.408905 571.548950,409.844238   C575.246460,408.874420 579.003357,408.084778 582.773315,407.449982   C586.795715,406.772644 590.068909,405.230469 591.847534,400.886505  M705.195801,212.637085   C694.209229,230.258881 684.818359,248.727478 676.021301,267.601562   C677.231201,266.993713 678.221619,266.205658 679.086243,265.297821   C691.828613,251.918777 704.031921,238.076233 714.610962,222.895081   C722.993347,210.866119 730.647034,198.394836 735.752502,184.561890   C736.720642,181.938721 738.426025,179.249512 737.260498,176.098709   C729.757324,178.719894 717.865601,192.274170 705.195801,212.637085  M573.681030,424.261169   C575.365601,422.612518 577.050110,420.963898 579.333923,418.728790   C566.001831,421.669159 562.469910,424.037964 563.006409,429.423615   C567.202087,429.581696 569.782593,426.309631 573.681030,424.261169  z" data-duration="500" fill="none" opacity="1.000000" seq="2" stroke="black" stroke-linecap="round" stroke-linejoin="round" stroke-width="4"/>
<path d=" M193.862488,507.815430   C190.028839,507.582886 186.546127,507.151550 185.834000,502.927063   C185.097137,498.555817 188.202377,496.753967 191.559586,495.260773   C209.480316,487.289978 228.610779,483.371216 247.530106,478.878448   C282.684235,470.530457 318.283997,464.468323 354.126526,460.032196   C381.692871,456.620392 409.279572,453.402985 437.027374,451.474457   C476.932190,448.700928 516.856506,447.408234 556.826477,448.165222   C594.767029,448.883759 632.726379,449.872406 670.491699,453.944153   C685.176331,455.527374 700.069397,456.388000 714.145264,461.626892   C715.237183,462.033264 716.349060,462.397369 717.408630,462.876282   C718.531494,463.383850 719.414490,464.188904 719.198181,465.560577   C718.969482,467.011078 717.782837,467.330475 716.571899,467.322449   C713.742065,467.303680 710.882446,467.429108 708.088196,467.075104   C682.324097,463.810791 656.460815,461.567169 630.526855,460.530029   C608.565979,459.651794 586.583313,459.191284 564.590210,459.187256   C537.767456,459.182373 510.938995,459.143250 484.154419,460.462128   C453.238892,461.984436 422.389618,464.431244 391.618225,468.030243   C348.452148,473.078949 305.596008,479.855682 263.166016,489.242584   C242.362167,493.845123 221.692230,498.997070 201.552353,506.074829   C199.213455,506.896759 196.697510,507.214874 193.862488,507.815430  z" data-duration="600" fill="none" opacity="1.000000" seq="3" stroke="black" stroke-linecap="round" stroke-linejoin="round" stroke-width="4"/>
<path d=" M803.522583,300.413696   C816.574585,300.594116 822.688965,308.289886 819.958252,321.329285   C816.094727,339.778107 806.323303,354.751129 791.878296,366.724365   C789.563904,368.642670 786.884460,370.046509 784.024841,371.034698   C772.789978,374.917084 764.370178,370.848694 760.273804,359.407013   C757.183472,361.176636 756.378662,367.538788 751.118591,364.635101   C746.293091,361.971344 749.541626,357.934265 750.417603,353.330780   C747.791260,355.186127 745.866699,356.551788 743.935791,357.908386   C740.243164,360.502533 736.403992,362.822235 732.115295,364.325195   C723.240479,367.435364 718.242859,365.984039 710.397339,357.025818   C707.682617,360.248993 705.115112,363.473419 702.355591,366.524017   C699.616760,369.551727 696.053101,371.456573 692.295044,372.881989   C682.793030,376.485931 674.184021,369.825989 675.180786,359.630829   C676.141174,349.807617 679.983704,340.976135 684.978027,332.608063   C690.554810,323.264069 697.085022,314.652832 705.174805,307.313416   C710.173340,302.778503 715.817993,300.541290 722.618347,302.773071   C726.085999,303.911163 728.841980,305.811707 730.482422,309.221466   C732.119995,312.625305 732.908264,316.350891 735.670715,319.349762   C737.547791,321.387604 735.642212,324.088501 734.548828,326.316956   C731.467957,332.596191 728.305115,338.835724 725.275818,345.139557   C724.342529,347.081696 723.693787,349.166260 722.992249,351.212189   C722.453796,352.782471 721.707703,354.573303 723.038391,355.937744   C724.578064,357.516510 726.480530,356.529236 728.179138,355.918030   C733.907227,353.856873 738.791992,350.324890 743.507446,346.634155   C748.225952,342.940918 752.630859,338.848328 757.201233,334.963806   C759.666687,332.868286 761.343567,330.268158 762.731812,327.360565   C779.030640,293.223022 797.811646,260.368469 814.832825,226.604279   C816.579834,223.138916 819.030762,223.439056 821.938660,224.460800   C825.155640,225.591171 825.810730,227.773743 824.704773,230.793213   C820.510132,242.244858 814.710571,252.935287 809.153076,263.744110   C800.865845,279.861938 792.635193,296.008881 784.765015,312.475220   C790.543823,307.786041 795.458435,302.023041 803.522583,300.413696  M783.677551,329.185516   C777.122864,337.077545 771.040710,345.197876 771.179932,356.178131   C771.264832,362.872559 773.899841,364.388855 779.557251,360.745850   C789.435730,354.384735 796.545776,345.395752 802.605408,335.525726   C806.106262,329.823334 808.966858,323.801910 809.807251,317.055969   C810.067139,314.970062 810.856812,312.347992 808.841370,310.980591   C806.591675,309.454285 804.359985,311.281464 802.450134,312.491852   C795.497620,316.898010 789.744995,322.693146 783.677551,329.185516  M691.453064,361.924438   C706.119263,351.505371 715.896423,337.301971 723.024231,321.064056   C724.301025,318.155304 723.474182,315.125946 721.484863,313.249451   C719.193787,311.088409 717.225769,313.757782 715.642090,315.234161   C703.311890,326.729279 693.660034,340.094513 687.854187,356.028015   C687.045898,358.246368 685.718994,360.596008 687.087463,363.221008   C688.567139,363.664001 689.680481,362.848022 691.453064,361.924438  z" data-duration="700" fill="none" opacity="1.000000" seq="4" stroke="black" stroke-linecap="round" stroke-linejoin="round" stroke-width="4"/>
</svg>
