<?xml version="1.0" encoding="utf-8"?>
<svg fill="none" height="auto" viewBox="0 0 2448 905" width="100%" xmlns="http://www.w3.org/2000/svg" xmlns:xlink="http://www.w3.org/1999/xlink"><style>
path {
  fill: black;
  opacity: 1;
}
</style>
<path d=" M727.42,757.17   C751.85,696.71 782.21,640.59 816.49,586.21   C835.49,556.08 848.21,522.18 861.66,489.02   C864.77,481.36 867.60,473.59 871.74,462.80   C865.23,466.13 860.92,467.92 857.04,470.39   C812.43,498.84 769.21,529.15 730.09,565.00   C723.55,570.99 721.00,578.86 718.30,586.64   C692.81,660.02 659.50,729.79 620.80,797.00   C599.13,834.64 573.69,869.58 541.10,898.86   C528.01,910.62 515.86,915.11 507.93,908.99   C496.07,899.84 499.07,887.71 502.81,875.88   C517.35,830.00 540.73,788.33 564.74,747.00   C595.57,693.96 630.94,644.13 670.96,597.62   C676.11,591.64 681.19,585.43 687.15,580.32   C701.83,567.74 711.56,552.45 716.85,533.80   C725.92,501.81 740.29,471.56 748.92,435.79   C729.40,465.46 707.63,489.38 685.24,512.69   C667.67,530.97 650.14,549.65 623.98,555.97   C608.23,559.78 600.43,553.76 599.35,537.43   C598.39,523.02 601.19,509.23 605.46,495.70   C615.85,462.77 627.35,430.26 643.29,399.51   C644.25,397.66 645.53,395.98 646.43,394.11   C649.62,387.56 654.53,384.11 661.50,387.71   C668.77,391.47 666.11,397.61 663.32,402.83   C653.70,420.83 645.12,439.28 637.48,458.21   C629.52,477.93 623.40,498.17 619.30,519.00   C618.20,524.58 617.52,530.41 619.98,536.69   C630.30,534.40 638.00,527.76 645.48,521.63   C695.15,480.86 732.17,429.99 761.82,373.46   C765.47,366.51 768.00,358.88 777.94,362.46   C787.49,365.91 785.68,373.17 783.93,381.12   C772.72,431.85 757.17,481.27 738.30,532.19   C767.01,509.55 793.64,487.99 822.67,469.78   C838.17,460.06 853.56,450.04 870.40,442.67   C880.36,438.31 885.61,430.30 889.40,420.68   C894.13,408.69 899.18,396.81 904.19,384.93   C906.85,378.63 909.85,371.55 918.49,375.02   C927.33,378.56 926.00,385.11 922.30,392.50   C917.84,401.40 911.36,410.89 911.36,420.11   C911.36,446.01 886.89,461.42 886.30,485.98   C908.06,458.53 931.08,431.28 955.77,405.56   C974.80,385.73 994.42,366.57 1022.77,359.94   C1054.60,352.48 1077.34,375.88 1068.79,407.35   C1060.38,438.31 1044.76,465.37 1022.89,493.15   C1075.30,472.87 1124.35,453.61 1171.45,429.74   C1179.33,425.74 1185.24,419.77 1189.31,411.35   C1202.11,384.86 1230.17,378.69 1255.39,385.52   C1278.47,391.76 1291.24,416.23 1287.04,442.21   C1286.39,446.24 1286.07,450.33 1285.63,454.08   C1290.38,457.99 1294.14,454.42 1297.88,453.57   C1323.20,447.76 1346.62,437.01 1369.61,425.25   C1381.82,419.00 1390.32,409.59 1396.94,397.27   C1429.86,336.05 1462.24,274.49 1497.32,214.51   C1521.41,173.31 1545.63,131.93 1574.63,93.75   C1576.86,90.82 1579.61,88.08 1582.62,85.96   C1588.28,81.98 1594.22,79.61 1601.07,84.08   C1607.65,88.38 1609.05,94.19 1607.68,101.40   C1602.47,128.70 1597.17,155.99 1592.23,183.34   C1577.39,265.38 1562.49,347.42 1553.31,430.35   C1550.39,456.73 1546.63,483.08 1545.05,509.55   C1542.00,560.78 1536.31,612.18 1548.58,663.09   C1550.72,671.98 1552.87,680.91 1557.25,689.02   C1565.17,703.67 1575.32,705.32 1587.03,693.41   C1601.16,679.03 1611.40,661.74 1621.19,644.33   C1658.77,577.46 1689.09,507.18 1719.13,436.71   C1751.25,361.37 1783.55,286.08 1817.59,211.59   C1839.88,162.80 1865.38,115.47 1889.48,67.51   C1890.98,64.54 1892.67,61.65 1894.51,58.88   C1898.38,53.05 1903.22,50.00 1910.30,53.76   C1917.70,57.70 1920.69,63.95 1917.23,71.42   C1913.30,79.90 1910.20,88.74 1901.53,94.83   C1892.94,100.86 1890.42,112.04 1885.63,121.13   C1842.11,203.56 1803.76,288.43 1767.26,374.15   C1744.95,426.54 1723.71,479.42 1699.96,531.14   C1676.03,583.27 1651.86,635.44 1620.31,683.65   C1613.93,693.39 1607.27,703.08 1598.08,710.49   C1575.73,728.54 1550.75,722.82 1538.73,696.66   C1529.40,676.36 1527.13,654.35 1524.46,632.49   C1520.01,595.94 1521.33,559.28 1524.82,522.90   C1530.49,463.90 1536.44,404.94 1545.97,346.34   C1554.42,294.37 1562.31,242.31 1571.99,190.55   C1576.78,164.99 1582.08,139.52 1586.23,113.66   C1566.86,137.76 1550.51,163.67 1534.96,190.06   C1491.46,263.90 1450.28,339.05 1409.53,414.43   C1368.76,489.83 1329.92,566.21 1290.79,642.46   C1268.76,685.39 1245.76,727.84 1222.82,770.30   C1218.01,779.20 1213.54,789.60 1199.94,787.90   C1195.06,787.30 1190.83,786.59 1189.53,780.99   C1188.21,775.29 1189.75,770.97 1195.75,769.35   C1202.19,767.61 1204.52,762.31 1207.41,757.20   C1256.20,670.95 1299.60,581.88 1345.41,494.08   C1352.90,479.70 1360.60,465.44 1369.17,449.31   C1352.99,455.26 1338.61,460.89 1323.99,465.83   C1314.17,469.14 1304.18,472.93 1294.01,473.92   C1279.67,475.31 1272.30,483.40 1265.87,494.98   C1250.90,521.94 1231.06,544.58 1204.34,560.75   C1193.74,567.16 1182.79,570.96 1170.16,570.43   C1147.76,569.49 1133.05,554.93 1131.79,532.65   C1130.40,507.86 1137.94,485.37 1150.20,461.08   C1139.23,465.14 1130.58,467.73 1122.45,471.47   C1085.00,488.68 1046.32,502.86 1007.92,517.69   C998.80,521.21 991.19,526.22 983.83,532.67   C965.73,548.53 948.20,565.34 926.01,575.77   C923.38,577.01 920.74,578.39 917.96,579.13   C909.91,581.29 901.26,581.72 896.43,574.10   C891.52,566.37 896.09,559.08 901.50,552.73   C915.85,535.89 936.20,528.20 955.33,519.68   C1005.51,497.31 1029.59,454.38 1048.48,406.76   C1049.68,403.74 1049.87,400.26 1050.22,396.95   C1051.87,381.63 1042.28,372.92 1027.59,376.82   C999.23,384.35 979.22,404.25 960.73,425.05   C919.75,471.13 884.71,521.85 849.42,572.32   C831.59,597.81 823.27,627.89 809.35,655.29   C786.94,699.42 768.47,745.52 743.09,788.17   C740.34,792.79 737.51,797.60 733.73,801.31   C730.15,804.82 724.96,806.94 719.99,803.86   C714.73,800.62 713.46,795.55 715.61,789.68   C719.46,779.16 723.26,768.61 727.42,757.17  M613.33,703.72   C575.61,762.76 538.22,821.96 518.13,890.82   C523.19,890.75 525.26,888.55 527.33,886.62   C557.66,858.34 583.24,826.31 603.54,790.10   C637.05,730.36 669.64,670.19 692.50,603.94   C662.41,634.55 638.05,668.13 613.33,703.72  M1238.38,503.86   C1242.73,496.90 1247.76,490.27 1249.46,481.10   C1222.99,480.07 1202.90,468.00 1187.80,444.53   C1165.69,468.66 1152.53,495.13 1151.30,526.58   C1150.36,550.46 1167.17,560.13 1188.59,548.90   C1208.48,538.47 1224.27,523.39 1238.38,503.86  M1225.07,456.39   C1263.39,470.13 1268.18,458.14 1266.91,423.81   C1266.90,423.40 1266.92,422.97 1266.82,422.57   C1264.35,413.04 1260.66,403.84 1250.25,401.08   C1238.87,398.06 1227.23,397.31 1217.79,406.92   C1200.71,424.32 1202.23,437.58 1225.07,456.39  z" data-duration="600" fill="black" opacity="1"/><path d=" M1910.47,472.30   C1926.75,450.70 1944.35,430.98 1954.11,406.16   C1956.80,399.33 1961.69,397.29 1967.99,399.38   C1974.91,401.68 1974.07,407.54 1972.42,412.95   C1963.24,443.13 1950.35,472.17 1944.61,503.42   C1943.49,509.55 1941.94,515.64 1941.32,521.83   C1939.76,537.28 1946.46,542.10 1960.52,535.70   C1982.77,525.57 2001.14,509.84 2019.61,494.28   C2026.60,488.39 2033.27,482.08 2040.55,476.57   C2055.57,465.21 2065.04,451.11 2071.19,432.70   C2099.74,347.33 2139.98,267.68 2193.27,194.92   C2208.57,174.03 2226.63,155.62 2246.99,139.52   C2254.06,133.92 2261.62,131.50 2270.16,135.45   C2279.07,139.58 2278.72,147.71 2278.65,155.82   C2278.52,170.94 2272.11,184.18 2265.65,197.10   C2233.42,261.53 2200.46,325.61 2156.78,383.30   C2135.17,411.83 2110.68,437.91 2085.04,462.89   C2072.94,474.66 2076.55,490.83 2073.81,505.16   C2072.66,511.19 2073.52,517.62 2073.59,523.87   C2073.87,548.71 2088.76,559.33 2112.56,551.24   C2139.38,542.13 2161.51,525.33 2183.76,508.31   C2213.16,485.80 2230.00,457.51 2241.55,421.68   C2258.35,369.58 2285.10,321.01 2312.58,273.31   C2336.50,231.80 2361.39,190.96 2392.07,154.02   C2401.87,142.22 2412.23,130.70 2425.65,122.60   C2441.84,112.82 2454.52,119.19 2456.44,137.66   C2457.65,149.33 2454.10,159.96 2450.15,170.40   C2432.41,217.32 2408.25,261.01 2381.55,303.29   C2352.89,348.69 2322.70,393.06 2286.68,433.10   C2274.44,446.71 2261.61,459.79 2249.20,473.26   C2236.68,486.84 2234.38,530.37 2246.12,544.18   C2255.23,554.90 2267.82,555.42 2280.61,552.23   C2304.16,546.35 2326.35,537.05 2347.55,525.26   C2353.35,522.03 2359.31,518.84 2365.58,516.81   C2370.46,515.23 2376.02,516.17 2377.96,522.07   C2379.66,527.27 2378.26,531.85 2372.63,534.45   C2340.27,549.42 2309.33,568.62 2272.68,571.44   C2246.32,573.48 2222.90,558.74 2221.95,530.56   C2221.64,521.55 2221.90,512.52 2221.90,503.07   C2214.35,504.48 2210.79,509.24 2206.57,513.06   C2180.12,536.95 2151.86,557.81 2117.06,568.24   C2080.72,579.12 2055.03,560.40 2054.35,522.56   C2054.16,511.93 2055.73,501.43 2056.98,487.44   C2043.86,498.62 2033.13,507.56 2022.63,516.75   C2008.18,529.42 1992.12,539.79 1975.88,549.92   C1973.08,551.67 1969.99,553.11 1966.85,554.13   C1955.24,557.90 1942.81,561.98 1932.37,553.18   C1921.58,544.09 1920.58,530.75 1922.61,517.50   C1924.23,506.89 1926.54,496.40 1929.16,482.60   C1916.47,495.48 1906.37,506.78 1895.17,516.84   C1876.94,533.20 1858.86,550.30 1833.75,555.77   C1809.11,561.14 1794.50,546.35 1798.75,521.03   C1805.05,483.62 1821.99,450.11 1837.09,415.92   C1840.45,408.31 1844.17,400.86 1847.16,393.11   C1849.82,386.22 1854.44,384.17 1860.90,386.65   C1867.81,389.31 1866.91,395.31 1864.81,400.36   C1859.71,412.65 1853.98,424.67 1848.42,436.76   C1837.28,460.97 1827.12,485.57 1820.42,511.42   C1818.17,520.09 1814.22,530.91 1822.45,536.91   C1830.55,542.81 1838.56,534.83 1845.94,530.21   C1870.57,514.78 1890.99,494.73 1910.47,472.30  M2290.05,355.43   C2277.12,382.34 2264.54,409.39 2253.83,440.21   C2271.34,423.35 2284.95,407.17 2297.72,390.21   C2346.84,324.99 2391.88,257.31 2424.83,182.19   C2430.49,169.29 2434.76,156.19 2436.08,141.52   C2430.07,141.66 2427.28,145.41 2424.01,148.45   C2409.01,162.39 2395.79,177.89 2384.25,194.74   C2349.44,245.57 2318.35,298.61 2290.05,355.43  M2226.51,232.19   C2239.09,208.21 2251.29,184.09 2259.58,155.91   C2207.61,189.76 2102.25,363.25 2095.70,424.52   C2150.24,367.73 2190.79,302.73 2226.51,232.19  z" data-duration="600" fill="black" opacity="1"/><path d=" M315.75,220.39   C256.92,232.11 199.16,243.74 141.41,255.41   C134.10,256.89 126.97,258.18 122.97,266.14   C120.11,271.83 114.20,273.22 107.91,272.88   C94.14,272.14 80.44,273.27 67.02,276.32   C60.36,277.84 55.03,276.77 52.64,270.35   C50.00,263.25 54.36,258.19 60.16,255.00   C63.71,253.05 68.00,252.32 72.04,251.43   C177.36,228.20 282.85,205.93 389.30,188.36   C431.45,181.40 473.29,172.59 515.38,165.21   C536.58,161.50 557.97,158.79 579.35,156.27   C587.39,155.32 593.45,153.01 597.59,145.51   C612.10,119.24 630.22,95.35 647.50,70.90   C651.43,65.33 655.75,62.08 661.87,66.87   C668.17,71.81 666.45,77.74 662.50,83.44   C651.83,98.82 641.13,114.18 630.54,129.62   C626.85,135.01 623.44,140.59 619.30,147.02   C631.21,150.84 641.52,147.21 651.14,145.34   C698.87,136.07 747.20,131.01 795.22,123.89   C850.59,115.68 906.07,107.74 961.75,102.24   C998.83,98.58 1036.18,93.65 1073.71,98.50   C1080.22,99.34 1085.89,101.40 1090.53,105.79   C1094.73,109.75 1094.87,114.77 1091.85,119.44   C1089.20,123.53 1084.99,126.58 1080.17,124.16   C1051.95,110.01 1022.13,116.18 993.33,118.88   C931.76,124.65 870.36,132.43 809.06,140.63   C764.66,146.57 720.55,154.66 676.27,161.46   C655.75,164.61 635.14,167.25 614.52,169.59   C607.12,170.43 602.58,173.85 598.74,179.97   C538.36,276.29 482.95,375.42 431.61,476.81   C386.50,565.89 346.11,657.18 306.41,748.76   C303.43,755.64 301.23,762.56 300.65,770.27   C300.08,777.91 295.77,784.49 286.72,782.15   C278.13,779.93 278.38,772.53 280.80,765.81   C290.66,738.39 303.44,712.17 314.50,685.26   C355.20,586.26 401.81,490.04 451.98,395.60   C485.13,333.18 520.87,272.13 556.01,210.79   C562.34,199.74 569.93,189.40 577.51,175.00   C488.85,190.41 402.84,205.37 315.75,220.39  z" data-duration="600" fill="black" opacity="1"/></svg>