<?xml version="1.0" encoding="utf-8"?>
<svg enable-background="new 0 0 848 400" id="Layer_1" version="1.1" viewBox="0 0 848 400" width="100%" x="0px" xml:space="preserve" xmlns="http://www.w3.org/2000/svg" xmlns:xlink="http://www.w3.org/1999/xlink" y="0px">
<path d=" M132.468658,401.000000   C125.216599,390.595825 127.862320,379.805328 131.256027,369.306213   C139.744812,343.044403 155.063965,320.719391 172.355774,299.586060   C191.939056,275.652161 213.909897,254.124527 237.685104,234.396484   C239.745544,232.686783 241.651520,230.810913 242.583450,228.194214   C247.595413,214.121292 252.603058,200.046844 256.923431,185.495483   C247.250687,196.114441 237.594269,206.748322 227.898529,217.346252   C222.827148,222.889465 217.567322,228.299332 210.963181,232.003769   C201.803772,237.141556 192.708572,233.511047 191.754517,224.447861   C191.391647,221.000824 191.440811,217.507507 192.270279,214.027878   C197.265747,193.071869 208.003830,174.925797 219.906677,157.359375   C222.113770,154.102112 226.291534,153.782425 229.575302,156.199417   C232.630173,158.447922 233.474060,162.748535 231.185822,165.836670   C221.932693,178.324493 213.664413,191.375748 207.961609,205.908249   C206.227081,210.328384 204.737732,214.839050 204.113327,220.278778   C209.366867,218.574600 212.617340,215.424271 215.638412,212.243713   C227.567612,199.684677 239.296829,186.935928 251.130081,174.285477   C256.346130,168.709229 262.711945,164.278778 267.030731,157.774460   C268.983551,154.833405 272.318726,154.907303 275.109131,156.527756   C278.524994,158.511429 279.599854,161.862778 278.348633,165.588211   C274.111359,178.204330 269.740875,190.775742 265.411499,203.360870   C264.497314,206.018250 263.541473,208.661301 263.281006,211.904205   C267.455658,208.069000 271.667938,204.273758 275.793579,200.386566   C279.430786,196.959625 282.897705,193.350403 286.568115,189.960587   C297.502014,179.862564 308.246796,169.668137 312.838776,154.805328   C313.656586,152.158295 315.580902,149.871902 318.590698,150.021591   C321.603546,150.171402 323.773407,152.217728 324.933746,155.026566   C325.826324,157.187103 325.167755,159.269287 324.156952,161.264328   C322.289154,164.950775 320.445984,168.649689 318.104462,173.316147   C321.126770,171.818863 322.618103,170.193863 324.162231,168.562805   C328.874420,163.585251 333.906952,158.998337 340.068115,155.802109   C346.613373,152.406616 353.257904,150.491943 359.687256,155.692810   C366.300018,161.042053 366.087616,168.459686 364.762024,175.872406   C364.182465,179.113129 362.822540,182.214310 361.819977,185.369522   C362.109161,185.554260 362.485809,185.916321 362.596130,185.848053   C374.170380,178.684586 386.425537,172.323166 394.368744,160.645187   C397.954315,155.373703 402.692963,151.605896 408.255829,148.791534   C416.529327,144.605789 426.721130,149.042953 430.219269,158.180939   C432.511780,164.169556 432.027161,170.247086 431.003357,176.368820   C430.598389,178.790283 430.285309,181.227081 429.841553,184.264969   C437.548676,182.223328 443.745453,178.449585 449.858765,174.517258   C455.177856,171.095840 460.479614,167.646439 465.744690,164.142776   C467.369263,163.061707 468.943176,162.030289 470.594299,163.851593   C472.236115,165.662628 470.540558,166.860291 469.556702,168.115417   C458.880432,181.735718 445.020416,190.976761 428.960175,196.911255   C425.625732,198.143387 423.768921,199.850632 422.332703,202.911972   C416.330536,215.705734 407.475616,226.143707 395.738647,234.065155   C389.760071,238.100159 383.530212,240.369675 376.711121,235.946594   C369.769287,231.443893 367.930420,224.625381 368.328705,216.898651   C368.702576,209.646103 370.953949,202.895157 374.018951,196.367767   C374.616058,195.096130 375.779968,193.906738 375.106781,192.003311   C371.744537,192.259445 369.606506,194.886612 366.847290,196.204086   C355.967041,201.399277 347.290894,208.988312 340.273102,218.897797   C334.221832,227.442566 326.001343,233.812515 316.142883,237.700378   C305.780975,241.786774 299.530731,239.742569 292.928436,229.791580   C289.010712,237.720184 285.282104,245.223190 281.590973,252.744568   C272.343689,271.587646 263.987518,290.804749 257.300354,310.721619   C255.284943,316.724274 253.084549,322.663513 255.121674,329.182343   C255.816162,331.404694 254.471359,333.010437 252.628845,334.141724   C249.982437,335.766663 247.247314,335.841797 244.585785,334.261841   C241.095657,332.190033 239.163025,326.825256 240.451279,322.918457   C249.528320,295.391144 260.338287,268.545135 272.246002,242.131271   C278.317291,228.663849 284.378143,215.191727 289.595001,201.054596   C281.296051,209.109467 273.318970,217.533798 264.611237,225.119431   C255.160309,233.352509 249.165283,243.239624 244.918381,255.028336   C236.686386,277.879028 227.015808,300.198151 216.556915,322.139709   C202.405807,351.827087 185.663208,379.656555 159.130554,400.696167   C150.312439,401.000000 141.624863,401.000000 132.468658,401.000000  M140.352509,383.736298   C140.625336,386.603180 139.102966,390.160034 142.308701,392.000549   C145.692932,393.943512 148.845749,391.718628 151.568268,389.962891   C158.030914,385.795258 163.650375,380.632263 168.767578,374.845551   C183.593491,358.080017 194.409027,338.839539 204.122437,318.846588   C214.328415,297.839722 223.523499,276.415405 232.262573,254.055801   C219.988632,264.759979 209.139282,275.791595 198.646179,287.205048   C188.149887,298.621918 178.073441,310.385864 169.197693,323.092712   C156.384583,341.436432 144.484314,360.291565 140.352509,383.736298  M317.597656,211.020142   C318.195435,210.725769 318.801178,210.446472 319.389801,210.134811   C341.478088,198.439667 341.736359,198.218811 350.275238,177.986130   C351.363831,175.406693 352.082733,172.629684 352.635651,169.876480   C353.294159,166.597290 352.113312,165.034332 348.522430,166.267319   C345.657410,167.251038 343.017242,168.592758 340.594208,170.409561   C323.892822,182.932129 312.000458,199.556152 300.954926,216.897141   C300.759766,217.203537 300.999329,217.786819 301.087891,218.882507   C306.815125,216.804718 311.898499,214.130722 317.597656,211.020142  M405.403198,195.159225   C401.276703,193.060623 398.308990,189.436630 394.631561,186.083038   C388.854645,194.952423 384.320068,203.567001 381.742920,213.128296   C380.997467,215.893936 381.023102,218.727692 381.287109,221.552475   C381.626862,225.188354 383.454102,226.264954 386.692902,224.452194   C397.502930,218.401825 404.946686,209.335022 410.323700,198.553223   C409.178375,196.641693 407.351990,196.437561 405.403198,195.159225  M416.890686,184.175323   C419.051117,178.761169 420.887604,173.270767 420.824036,167.337738   C420.796417,164.761353 420.602875,161.885910 417.767914,161.123108   C414.737122,160.307632 412.401520,162.098892 410.926697,164.839783   C409.431793,167.617981 407.949188,170.402863 406.438171,173.172287   C404.933136,175.930695 404.759125,178.655212 407.138916,180.945129   C409.696289,183.405884 412.150299,186.441040 416.890686,184.175323  z" data-duration="600" fill="none" opacity="1.000000" stroke="black" stroke-width="2"/>
<path d=" M849.000000,71.533142   C834.478943,105.269333 811.765747,132.919235 788.611511,160.296188   C777.515686,173.415466 765.566956,185.681778 753.033875,197.403610   C750.551575,199.725220 749.620544,202.730972 749.407104,205.922287   C749.163086,209.571014 749.074951,213.255951 749.285156,216.904068   C749.768738,225.295059 754.865173,228.956223 763.194336,227.229706   C775.728516,224.631577 786.232422,217.750244 796.688477,210.988327   C809.147400,202.931122 820.766174,193.694824 831.850037,183.809753   C832.842102,182.924957 833.840088,181.971313 835.000183,181.365356   C838.070007,179.761871 840.832031,181.634369 840.557617,185.092041   C840.407654,186.982193 839.493286,188.549866 838.136536,189.896317   C820.659119,207.240982 801.673096,222.586731 779.524170,233.641327   C773.115234,236.840042 766.441650,239.397217 759.044006,239.393799   C745.970764,239.387741 737.811523,232.012421 736.650330,218.974411   C736.492920,217.206787 736.262756,215.445648 736.025391,213.313736   C731.425598,214.875168 728.627686,218.116959 725.231750,220.406067   C716.827148,226.071442 708.696350,231.999680 699.020020,235.688080   C688.345764,239.756882 676.939880,233.008911 674.673706,221.901993   C674.279968,219.972183 673.716248,218.077087 673.210022,216.083466   C670.415039,216.181351 669.057251,218.307587 667.276794,219.658295   C660.653198,224.683319 654.451294,230.350922 646.440613,233.233948   C636.136963,236.942215 626.891235,230.676376 626.673889,219.811523   C626.598206,216.029266 626.433533,212.233505 627.432922,208.315109   C624.372009,207.392395 623.271057,209.722046 621.956726,211.101547   C615.638062,217.733749 609.651428,224.683228 602.728088,230.727615   C596.530762,236.138138 591.929443,237.078903 586.513672,233.918381   C581.091003,230.753815 578.946411,224.858200 580.404419,217.429688   C583.679504,200.742859 592.872498,186.709259 600.698364,172.065094   C602.737976,168.248520 605.094666,164.596771 607.039673,160.735291   C609.784729,155.285583 612.439941,153.507721 615.960754,155.203751   C620.152649,157.222992 622.439148,164.016403 620.096924,168.152664   C618.460449,171.042770 616.453186,173.724792 614.583374,176.480682   C606.901123,187.803757 599.865723,199.487595 594.763794,212.236176   C593.847778,214.525192 593.169373,216.909302 592.301453,219.486328   C594.867920,220.385925 596.013733,218.706726 597.226746,217.551941   C614.249451,201.347015 630.486267,184.386490 645.919128,166.660294   C646.894470,165.539993 647.754883,164.268433 648.425720,162.944168   C650.189392,159.462479 651.898254,156.271820 656.726440,158.834259   C661.254944,161.237671 663.549377,166.395798 661.434448,170.480713   C660.294189,172.682953 658.747864,174.682922 657.311646,176.722656   C649.115601,188.363266 641.928894,200.486115 638.867981,214.629150   C638.402649,216.779404 637.689392,218.998306 639.647888,220.680695   C641.778992,222.511322 644.166809,221.627090 646.197083,220.471375   C657.591187,213.985657 667.404968,205.462631 676.334656,195.985687   C679.672119,192.443665 680.079224,187.160492 681.845947,182.686798   C695.453125,148.230316 714.080261,116.626694 735.973694,86.856926   C743.984375,75.964294 752.450134,65.498085 763.216614,57.137001   C764.269165,56.319592 765.319153,55.493477 766.420898,54.745846   C769.633911,52.565567 772.855103,50.230804 776.860596,53.088554   C780.717285,55.840084 781.627808,59.823002 780.954895,64.151283   C779.355896,74.436218 775.588745,84.030464 771.139343,93.374184   C758.916565,119.041786 741.709473,141.283295 723.135254,162.515854   C713.487793,173.543961 703.330627,184.131546 693.257874,194.780106   C687.229675,201.152817 686.309937,209.076752 686.624695,217.070541   C686.867126,223.228302 691.403015,225.553391 697.268311,223.198624   C706.804688,219.370056 714.449463,212.465881 723.022583,207.069565   C735.429810,199.259827 741.369690,187.676529 746.310669,174.312408   C755.581238,149.237869 769.311584,126.323776 784.381042,104.262238   C793.126831,91.458313 802.502441,79.150177 813.087463,67.792198   C818.458130,62.029308 824.405090,56.949593 831.186707,52.938057   C837.871521,48.983818 843.538391,49.947598 848.721680,55.798119   C849.000000,61.022091 849.000000,66.044182 849.000000,71.533142  M777.620911,157.147644   C780.690125,153.644669 783.831482,150.202011 786.816528,146.628693   C803.680237,126.441216 819.928406,105.810051 832.223083,82.395866   C835.044495,77.022736 837.679871,71.550522 838.689331,65.088989   C815.101440,75.098694 762.404114,157.699127 762.057617,173.188904   C768.198669,168.542023 772.424438,162.850510 777.620911,157.147644  M718.050476,137.502975   C712.374573,147.861572 706.459045,158.106354 702.914795,169.560944   C731.400391,140.247040 756.550781,108.773735 770.188782,69.544212   C764.353149,73.172371 760.311218,78.465836 755.989990,83.439697   C741.639221,99.957939 729.800354,118.260193 718.050476,137.502975  z" data-duration="600" fill="none" opacity="1.000000" stroke="black" stroke-width="2"/>
<path d=" M185.074982,117.180382   C192.544754,101.153534 199.847031,85.468361 207.396423,69.252396   C203.895340,69.148018 201.066345,70.497345 198.222870,71.376244   C156.104553,84.394615 114.243797,98.190826 73.713593,115.628654   C56.775242,122.916252 39.594738,129.836685 23.942600,139.820541   C20.826868,141.807953 17.963009,141.473358 15.255103,139.141464   C12.684998,136.928223 9.975872,134.478256 11.020581,130.742508   C11.945704,127.434395 14.653572,125.676422 18.241100,125.665184   C20.689646,125.657509 22.695847,124.377617 24.775360,123.364662   C62.542740,104.967758 101.572289,89.737885 141.465515,76.641479   C164.216736,69.172562 186.998444,61.813515 210.060776,55.352394   C212.925339,54.549858 215.094421,52.974281 216.417114,50.186771   C218.771988,45.223991 221.331909,40.358498 223.686356,35.395523   C225.151230,32.307724 226.814926,29.720100 230.842102,30.994375   C234.783264,32.241440 237.180649,36.492573 236.073151,40.547268   C235.434174,42.886688 234.344955,45.103134 233.095200,48.305565   C240.461121,46.321239 246.974503,44.526527 253.509125,42.812820   C290.961121,32.991058 328.458038,23.291281 366.689087,16.968763   C382.876404,14.291756 399.155212,12.093761 415.649078,11.404827   C425.021851,11.013336 434.235413,10.788088 443.373291,12.771960   C449.961578,14.202306 455.456207,17.454903 458.451813,23.944975   C460.227448,27.791983 458.829651,31.820742 455.014618,33.550625   C451.492584,35.147648 449.288605,33.850109 447.678467,28.880295   C446.498199,25.237305 443.191132,25.146482 440.465820,24.507479   C431.440430,22.391300 422.223297,23.146242 413.100769,23.529795   C385.442413,24.692677 358.249817,29.321045 331.311401,35.444977   C297.270874,43.183445 263.587219,52.324532 229.937576,61.597633   C224.831314,63.004814 222.362427,66.392830 220.253586,70.747269   C205.887650,100.410706 192.594193,130.559296 179.182083,160.659058   C161.774307,199.725998 145.143951,239.101151 130.518066,279.303406   C128.412949,285.089752 126.781052,291.015076 125.653923,297.074005   C125.284889,299.057739 124.956467,301.097198 125.960831,302.942871   C128.086411,306.848846 126.102013,309.773560 123.518501,312.201599   C120.155266,315.362396 116.461639,314.428406 113.033646,312.017426   C109.820908,309.757874 107.635246,306.966034 109.093964,302.722076   C112.067871,294.069824 114.845573,285.340668 118.122040,276.803558   C131.299835,242.467743 144.351471,208.078003 159.409271,174.499359   C167.923203,155.513443 176.409027,136.514908 185.074982,117.180382  z" data-duration="600" fill="none" opacity="1.000000" stroke="black" stroke-width="2"/>
<path d=" M633.072144,57.968914   C615.952576,89.433365 598.340881,120.222786 582.927979,152.168243   C567.305908,184.547302 553.066345,217.550217 539.234192,250.728851   C538.274170,253.031693 537.259033,255.323715 536.088135,257.524261   C532.337952,264.572357 524.832214,265.401550 519.377136,259.459045   C515.889282,255.659561 515.239075,250.882721 514.654724,246.074081   C512.799805,230.810074 513.355652,215.473770 513.754761,200.184448   C514.287842,179.762497 516.444275,159.437790 518.373962,139.097519   C519.673950,125.395706 521.580566,111.763138 522.141174,97.757179   C520.023926,101.868439 517.816833,105.936256 515.803223,110.097672   C495.142151,152.797028 473.343018,194.945175 453.746613,238.159668   C451.410736,243.310791 449.162689,248.504288 447.792023,254.032410   C447.335327,255.874313 447.100494,257.632416 447.982574,259.374786   C449.433289,262.240448 449.452545,265.022552 446.615845,266.886993   C443.741425,268.776215 440.601105,268.599121 437.713196,266.586395   C432.820709,263.176605 431.645691,258.899902 434.127930,253.082489   C443.665070,230.731277 453.659210,208.588058 463.906799,186.550385   C482.584717,146.383286 502.498688,106.842583 523.172485,67.675125   C524.569580,65.028275 525.681519,62.232361 526.989807,59.536697   C528.153503,57.138927 529.183167,54.411343 532.601990,54.772217   C535.898682,55.120197 538.016296,57.214703 539.206726,60.149185   C540.016785,62.146240 540.246399,64.242088 539.964050,66.496109   C536.122192,97.160294 531.935242,127.774345 529.025513,158.561844   C526.671082,183.474503 526.030823,208.379181 526.396484,233.347046   C526.451782,237.119766 527.274414,240.881241 527.865112,245.638443   C535.334351,227.569611 542.337708,210.372528 549.539734,193.259079   C564.208313,158.403641 580.438049,124.287025 598.469788,91.041222   C606.721313,75.827568 614.391541,60.275417 624.294067,46.005405   C627.489807,41.400257 629.482117,40.810223 633.728699,43.436932   C637.567871,45.811680 638.103760,48.995655 635.871765,52.812466   C634.947266,54.393356 634.123962,56.033398 633.072144,57.968914  z" data-duration="600" fill="none" opacity="1.000000" stroke="black" stroke-width="2"/>
<path d=" M240.599823,369.087402   C235.639099,369.272400 233.070847,366.395599 231.935257,362.586823   C230.742737,358.587067 233.361465,356.248779 236.733093,354.344696   C247.828949,348.078461 259.843933,344.039429 271.795624,339.962555   C321.766998,322.916931 372.859009,310.219513 424.740051,300.451721   C453.485229,295.039825 482.376770,290.630707 511.366089,287.026642   C530.624878,284.632294 550.032288,283.191925 569.387695,281.473724   C604.710510,278.338043 640.095032,276.629395 675.515198,276.173553   C693.739685,275.938995 712.015808,276.427887 730.244202,278.395752   C744.955261,279.983917 759.653198,281.386230 774.091370,284.683472   C778.779968,285.754242 783.396973,287.203094 787.961487,288.733124   C791.899475,290.053131 794.838196,292.634003 796.569153,296.555298   C797.936157,299.652161 797.083923,302.113037 794.698730,304.133942   C792.097961,306.337616 788.540894,306.825012 786.474060,304.518982   C782.274719,299.833771 776.639465,299.032928 771.269592,297.743744   C754.437195,293.702667 737.284485,291.701141 720.043518,290.250336   C686.282959,287.409454 652.504456,287.975586 618.751770,289.837280   C592.027100,291.311340 565.327698,293.274841 538.692749,296.104980   C499.497955,300.269714 460.456635,305.457855 421.817444,313.274078   C367.794525,324.202271 314.489441,337.822479 262.806976,357.243439   C255.024216,360.167999 247.290665,363.288483 240.599823,369.087402  z" data-duration="600" fill="none" opacity="1.000000" stroke="black" stroke-width="2"/>
</svg>
