<?xml version="1.0" encoding="utf-8"?>
<svg height="auto" viewBox="0 0 1024 1024" width="100%" xmlns="http://www.w3.org/2000/svg" xmlns:xlink="http://www.w3.org/1999/xlink"><defs><mask id="reveal-mask"><rect fill="black" height="100%" width="100%" x="0" y="0"/><path d=" M297.869720,587.070923   C307.644928,562.888855 319.786011,540.439758 333.499023,518.688538   C341.098328,506.634583 346.186615,493.074982 351.567841,479.811005   C352.810699,476.747467 353.945038,473.639893 355.600250,469.324829   C352.996643,470.657318 351.270447,471.371460 349.719452,472.360443   C331.874207,483.739044 314.585968,495.863495 298.940643,510.204651   C296.325073,512.602112 295.304047,515.748169 294.222778,518.860962   C284.027466,548.210815 270.703125,576.122314 255.225052,603.002991   C246.554672,618.060852 236.378601,632.037231 223.342621,643.749939   C218.108688,648.452637 213.245499,650.249329 210.074921,647.801331   C205.331680,644.139343 206.531143,639.287720 208.028976,634.558350   C213.842499,616.202576 223.193665,599.537048 232.801270,583.004639   C245.130630,561.788757 259.280518,541.857788 275.286102,523.254272   C277.347076,520.858765 279.379120,518.378357 281.764557,516.333923   C287.635315,511.302216 291.525635,505.186371 293.642029,497.725098   C297.271912,484.928131 303.021301,472.826569 306.473022,458.519257   C298.663940,470.388184 289.955872,479.954926 280.998016,489.278870   C273.973206,496.590759 266.958923,504.063782 256.495697,506.593964   C250.195465,508.117401 247.076447,505.707214 246.642410,499.177582   C246.259140,493.411926 247.379745,487.895142 249.087311,482.482422   C253.242340,469.311829 257.844635,456.307861 264.218842,444.006531   C264.601501,443.268066 265.113586,442.595093 265.477142,441.848633   C266.753387,439.228180 268.713989,437.849243 271.502289,439.289764   C274.410675,440.792328 273.347565,443.247437 272.231506,445.335205   C268.382751,452.534790 264.952362,459.917236 261.896362,467.488770   C258.713104,475.375610 256.261963,483.471222 254.622589,491.804230   C254.183716,494.035004 253.912598,496.367706 254.896179,498.880127   C259.022095,497.965576 262.104279,495.308472 265.093811,492.854767   C284.962463,476.547180 299.771820,456.200500 311.632324,433.590027   C313.090546,430.810028 314.102997,427.755646 318.077850,429.190063   C321.899628,430.569275 321.177002,433.471100 320.474762,436.650757   C315.992462,456.945099 309.770996,476.711670 302.222870,497.081787   C313.705627,488.022888 324.360107,479.398956 335.972748,472.116180   C342.171783,468.228485 348.329132,464.219910 355.061646,461.272949   C359.048676,459.527740 361.145477,456.325256 362.664062,452.476990   C364.557373,447.679077 366.574982,442.929657 368.579803,438.176544   C369.642853,435.656250 370.841858,432.824097 374.301086,434.210724   C377.836456,435.627808 377.302582,438.248383 375.822235,441.205627   C374.040039,444.765839 371.445770,448.558380 371.446014,452.250183   C371.446747,462.609802 361.660950,468.773438 361.424255,478.596588   C370.127258,467.614868 379.334534,456.715881 389.212341,446.426483   C396.823792,438.497894 404.672028,430.833130 416.009552,428.178650   C428.742828,425.197327 437.840424,434.555847 434.420441,447.142609   C431.055542,459.526764 424.805664,470.352936 416.061371,481.465759   C437.025299,473.350891 456.643280,465.647308 475.482544,456.099884   C478.637024,454.501251 481.001373,452.111481 482.627625,448.744446   C487.746002,438.147247 498.970490,435.678467 509.061279,438.410583   C518.291199,440.909637 523.398804,450.694916 521.720825,461.087921   C521.460205,462.702057 521.329529,464.337158 521.153625,465.835724   C523.055969,467.400665 524.560425,465.973114 526.055847,465.630554   C536.185364,463.310242 545.550964,459.007446 554.745483,454.303375   C559.629700,451.804535 563.029541,448.041107 565.680298,443.111847   C578.847839,418.625824 591.799500,394.000031 605.829651,370.009705   C615.469177,353.526794 625.154724,336.974426 636.756165,321.705841   C637.649292,320.530487 638.749084,319.436707 639.952942,318.589142   C642.213806,316.997345 644.591736,316.048676 647.332214,317.838287   C649.965271,319.557800 650.524597,321.880066 649.974487,324.763367   C647.890991,335.684662 645.772034,346.599884 643.793457,357.540375   C637.858643,390.356354 631.899963,423.170441 628.228821,456.342926   C627.060669,466.898041 625.555969,477.436890 624.924866,488.026062   C623.703674,508.516052 621.427979,529.075500 626.334900,549.439880   C627.191650,552.995850 628.053101,556.569580 629.804749,559.811707   C632.971802,565.673401 637.033325,566.331299 641.714966,561.567871   C647.368652,555.815369 651.463013,548.901184 655.378540,541.934509   C670.410767,515.187866 682.540833,487.074554 694.555481,458.889648   C707.402344,428.752228 720.325378,398.635742 733.939087,368.840912   C742.856689,349.323975 753.056335,330.392609 762.697266,311.206757   C763.294250,310.018707 763.972839,308.862976 764.708252,307.755066   C766.255188,305.424805 768.191040,304.204376 771.022278,305.709473   C773.984497,307.284119 775.179260,309.783691 773.794434,312.771149   C772.221924,316.163513 770.983643,319.700378 767.516418,322.136108   C764.080261,324.550018 763.072937,329.020325 761.153931,332.655304   C743.745605,365.629578 728.405518,399.575287 713.805420,433.865814   C704.883484,454.820526 696.388184,475.971680 686.889038,496.661652   C677.316101,517.512268 667.646545,538.381287 655.026123,557.664429   C652.475281,561.561951 649.809692,565.435913 646.135803,568.402283   C637.197266,575.619324 627.204468,573.331116 622.394897,562.869080   C618.661499,554.748108 617.753540,545.944702 616.688416,537.199097   C614.908020,522.580933 615.434326,507.914398 616.832275,493.362915   C619.099182,469.766327 621.480774,446.178741 625.291748,422.738617   C628.671509,401.950653 631.826843,381.126831 635.700684,360.422913   C637.613647,350.199036 639.735291,340.014191 641.395203,329.666840   C633.645874,339.310059 627.105408,349.674316 620.887939,360.227356   C603.486084,389.763794 587.017090,419.824127 570.713867,449.978149   C554.408569,480.135986 538.871277,510.689301 523.220825,541.187134   C514.407410,558.361694 505.205872,575.338684 496.031647,592.325012   C494.108337,595.886047 492.318512,600.043640 486.878662,599.365723   C484.927795,599.122620 483.233826,598.838867 482.715332,596.599609   C482.187836,594.321655 482.805176,592.593140 485.204407,591.944580   C487.779266,591.248474 488.711761,589.129272 489.868896,587.083679   C509.383850,552.585205 526.744690,516.958069 545.066101,481.834473   C548.064697,476.085938 551.144897,470.379883 554.573120,463.928223   C548.100952,466.310364 542.345581,468.559540 536.497803,470.535187   C532.573242,471.861084 528.573853,473.376648 524.507263,473.772278   C518.772644,474.330261 515.823242,477.563202 513.250427,482.197571   C507.263977,492.980743 499.328827,502.035309 488.639648,508.502533   C484.399841,511.067719 480.017670,512.590332 474.966919,512.377563   C466.008453,512.000244 460.122101,506.178131 459.620148,497.264954   C459.061798,487.350372 462.079010,478.353424 466.981689,468.634583   C462.596466,470.260620 459.135925,471.297516 455.885345,472.791290   C440.902588,479.676483 425.432739,485.346588 410.070251,491.279633   C406.424835,492.687500 403.379181,494.693268 400.433807,497.274292   C393.194244,503.618317 386.183472,510.340546 377.308777,514.513855   C376.255280,515.009216 375.200867,515.558777 374.086395,515.857910   C370.868286,516.721741 367.408447,516.893738 365.474335,513.843811   C363.513062,510.751007 365.340027,507.834808 367.502441,505.297699   C373.245270,498.559753 381.385040,495.485168 389.034515,492.075165   C409.106201,483.127533 418.739685,465.955780 426.296509,446.909180   C426.776672,445.698914 426.849518,444.306702 426.992035,442.986206   C427.653351,436.858215 423.814148,433.372101 417.940796,434.931488   C406.594788,437.943848 398.592407,445.905762 391.196381,454.222839   C374.803314,472.657562 360.787506,492.944458 346.671082,513.131531   C339.539246,523.330261 336.211578,535.361084 330.643677,546.322021   C321.677795,563.971924 314.291870,582.412476 304.140869,599.473328   C303.040924,601.322083 301.908447,603.243164 300.395660,604.727783   C298.963806,606.132935 296.889069,606.979980 294.897491,605.749817   C292.796936,604.452332 292.289398,602.425232 293.148926,600.076538   C294.689331,595.867188 296.208282,591.649902 297.869720,587.070923  M252.235596,565.691650   C237.149216,589.308044 222.191223,612.988586 214.155670,640.533752   C216.177597,640.502930 217.005844,639.625488 217.835938,638.851501   C229.967087,627.540100 240.198486,614.726807 248.320175,600.244934   C261.721436,576.349060 274.760559,552.281250 283.903107,525.778809   C271.866302,538.025696 262.124969,551.457642 252.235596,565.691650  M502.256256,485.746857   C503.995789,482.964661 506.006683,480.313507 506.688934,476.643677   C496.097778,476.233704 488.063995,471.402802 482.022705,462.018158   C473.178375,471.669159 467.914032,482.256897 467.421539,494.835144   C467.047394,504.390350 473.770660,508.255585 482.339386,503.763550   C490.293610,499.593567 496.610596,493.561340 502.256256,485.746857  M496.930267,466.761414   C512.257812,472.256561 514.175232,467.461090 513.667969,453.730286   C513.661865,453.564301 513.671814,453.392059 513.630920,453.233948   C512.643066,449.418427 511.167480,445.739044 507.004150,444.635376   C502.451416,443.428467 497.794891,443.129639 494.021332,446.972351   C487.188049,453.930878 487.797302,459.236694 496.930267,466.761414  z" data-duration="580" fill="none" seq="1" stroke="white" stroke-linecap="round" stroke-linejoin="round" stroke-width="3" vector-effect="non-scaling-stroke"/><path d=" M771.092163,473.124939   C777.605286,464.484833 784.643005,456.595520 788.548523,446.666504   C789.621765,443.938110 791.580688,443.119873 794.101379,443.957520   C796.866943,444.876526 796.530579,447.218536 795.871765,449.384888   C792.200500,461.458130 787.041992,473.073730 784.749207,485.571381   C784.299072,488.024902 783.679138,490.461243 783.430481,492.934967   C782.809143,499.117493 785.487244,501.046112 791.112610,498.484741   C800.011292,494.432922 807.360046,488.140228 814.746277,481.916412   C817.543030,479.559784 820.211365,477.036438 823.123230,474.833588   C829.132629,470.287415 832.918396,464.648865 835.381165,457.284576   C846.800537,423.137543 862.893616,391.277557 884.210205,362.173889   C890.331482,353.816498 897.556274,346.453949 905.699524,340.011353   C908.528870,337.772888 911.552490,336.804688 914.968018,338.385864   C918.530212,340.034973 918.389526,343.289551 918.361877,346.532715   C918.310242,352.580444 915.748779,357.875000 913.162720,363.045197   C900.272583,388.816467 887.088074,414.449005 869.613464,437.523590   C860.971741,448.934692 851.177002,459.370148 840.917603,469.358551   C836.078003,474.070190 837.522827,480.537994 836.427917,486.267731   C835.966919,488.680206 836.312012,491.252533 836.340271,493.751617   C836.452515,503.688873 842.407654,507.934753 851.926025,504.701202   C862.656433,501.055847 871.508728,494.338104 880.406067,487.526947   C892.166992,478.523682 898.902283,467.209198 903.522522,452.877716   C910.241699,432.035645 920.945068,412.606995 931.937012,393.528137   C941.503967,376.922577 951.459778,360.588928 963.730774,345.814026   C967.651489,341.093414 971.796448,336.484314 977.162292,333.244904   C983.639893,329.334351 988.712891,331.881226 989.478394,339.266876   C989.962219,343.934387 988.543457,348.189087 986.964600,352.363800   C979.866882,371.131134 970.201965,388.608734 959.524231,405.520691   C948.058716,423.680267 935.982117,441.427490 921.576782,457.445435   C916.680115,462.890259 911.546021,468.120850 906.583252,473.507233   C901.575623,478.942352 900.654663,496.351593 905.351135,501.875427   C908.996338,506.162781 914.030701,506.372894 919.146912,505.095490   C928.566895,502.743622 937.442261,499.023071 945.922607,494.307373   C948.241699,493.017822 950.627014,491.742157 953.134094,490.930023   C955.089355,490.296661 957.312988,490.673462 958.085510,493.032471   C958.766174,495.110779 958.205750,496.943970 955.954895,497.985321   C943.012024,503.973450 930.633850,511.652374 915.974243,512.781982   C905.429688,513.594482 896.064941,507.700287 895.683350,496.429138   C895.561279,492.824127 895.664185,489.211487 895.664185,485.432526   C892.643127,485.997406 891.221130,487.901123 889.529602,489.428955   C878.952515,498.982971 867.648926,507.327850 853.727661,511.498718   C839.190979,515.854004 828.916748,508.362610 828.645203,493.228119   C828.568909,488.977966 829.194275,484.777893 829.696472,479.181732   C824.448303,483.652679 820.157166,487.227325 815.957092,490.905914   C810.174011,495.971039 803.750061,500.120422 797.256958,504.173035   C796.135803,504.872803 794.898621,505.450073 793.641724,505.857941   C788.998901,507.364624 784.027161,508.994781 779.849670,505.474487   C775.535828,501.839355 775.134216,496.502655 775.945801,491.203644   C776.595398,486.962128 777.518494,482.762512 778.567383,477.243408   C773.489929,482.394379 769.453186,486.916168 764.970032,490.940704   C757.678955,497.485962 750.447876,504.322601 740.402649,506.511139   C730.546021,508.658539 724.701416,502.746124 726.404968,492.616364   C728.921875,477.650848 735.700134,464.248444 741.738586,450.572571   C743.081848,447.530334 744.572998,444.546478 745.767822,441.447754   C746.830872,438.690948 748.679260,437.870972 751.262329,438.863770   C754.028992,439.927124 753.666321,442.329285 752.828674,444.348114   C750.789368,449.262756 748.495789,454.072754 746.270630,458.909210   C741.814575,468.594208 737.751709,478.433075 735.069519,488.772949   C734.169739,492.241638 732.592407,496.569702 735.882141,498.967194   C739.122681,501.328888 742.328552,498.136688 745.281006,496.287079   C755.129578,490.117249 763.299377,482.094604 771.092163,473.124939  M922.924744,426.377716   C917.751709,437.139252 912.720947,447.959167 908.436218,460.287445   C915.440491,453.544037 920.883850,447.072906 925.992920,440.288757   C945.640442,414.199310 963.655334,387.126434 976.834778,357.082031   C979.098267,351.921997 980.806274,346.678436 981.335571,340.813873   C978.932068,340.869415 977.815125,342.366577 976.505798,343.584015   C970.508972,349.159973 965.218567,355.360199 960.603516,362.098755   C946.677795,382.431671 934.241943,403.647247 922.924744,426.377716  M897.506775,377.078552   C902.537720,367.489594 907.420654,357.839752 910.734436,346.567017   C889.946167,360.109528 847.802063,429.505615 845.181641,454.012634   C867.000488,431.297699 883.218323,405.295898 897.506775,377.078552  z" data-duration="660" fill="none" seq="2" stroke="white" stroke-linecap="round" stroke-linejoin="round" stroke-width="3" vector-effect="non-scaling-stroke"/><path d=" M133.204926,372.361847   C109.671387,377.048462 86.568253,381.700470 63.468269,386.368073   C60.544506,386.958862 57.691097,387.476501 56.092457,390.659027   C54.948929,392.935516 52.584721,393.491638 50.069382,393.356812   C44.558601,393.061523 39.080780,393.511017 33.712467,394.733917   C31.046661,395.341187 28.916388,394.912964 27.960184,392.343079   C26.903406,389.502899 28.647118,387.481598 30.967329,386.206238   C32.386635,385.426056 34.103500,385.132446 35.720989,384.775604   C77.846039,375.482727 120.044281,366.575592 162.624359,359.548187   C179.484650,356.765533 196.221100,353.240143 213.055359,350.289215   C221.534088,348.802948 230.090668,347.719971 238.642365,346.711975   C241.860184,346.332703 244.284836,345.407776 245.940765,342.409302   C251.744873,331.899536 258.992432,322.342865 265.902710,312.563141   C267.474915,310.338135 269.203766,309.037415 271.649567,310.953094   C274.169678,312.926941 273.485168,315.300049 271.903656,317.581024   C267.637299,323.734253 263.356567,329.877625 259.120911,336.051880   C257.642670,338.206726 256.279388,340.440399 254.622589,343.012207   C259.386627,344.540680 263.510986,343.086853 267.360779,342.339508   C286.453186,338.633240 305.783997,336.608704 324.992554,333.760315   C347.139923,330.476044 369.329987,327.301392 391.602509,325.101959   C406.436188,323.637177 421.374420,321.665863 436.388306,323.605591   C438.990417,323.941742 441.258636,324.764313 443.116272,326.519470   C444.794952,328.105560 444.850647,330.111725 443.642365,331.979004   C442.583801,333.614807 440.898438,334.836151 438.971741,333.870148   C427.683502,328.210358 415.756805,330.674957 404.234283,331.755096   C379.608246,334.063660 355.047455,337.177063 330.526123,340.456055   C312.767334,342.830750 295.125031,346.066956 277.410828,348.789093   C269.204010,350.050232 260.961212,351.103760 252.710724,352.039917   C249.752930,352.375549 247.934265,353.744446 246.399612,356.192596   C222.247147,394.720947 200.082413,434.373230 179.546951,474.928864   C161.504608,510.560791 145.347641,547.074524 129.468246,583.709290   C128.276535,586.458679 127.394058,589.228333 127.162903,592.312500   C126.934006,595.366638 125.212975,598.002258 121.591362,597.064514   C118.154091,596.174500 118.255684,593.217773 119.223068,590.527466   C123.166779,579.560120 128.278778,569.074341 132.703613,558.309753   C148.982605,518.706787 167.628296,480.218903 187.694778,442.442444   C200.956497,417.476379 215.252930,393.056244 229.307480,368.518494   C231.837570,364.101196 234.873642,359.963684 237.905853,354.204742   C202.445145,360.369598 168.040710,366.350800 133.204926,372.361847  z" data-duration="740" fill="none" seq="3" stroke="white" stroke-linecap="round" stroke-linejoin="round" stroke-width="3" vector-effect="non-scaling-stroke"/></mask></defs>



<g mask="url(#reveal-mask)"><path d=" M297.869720,587.070923   C307.644928,562.888855 319.786011,540.439758 333.499023,518.688538   C341.098328,506.634583 346.186615,493.074982 351.567841,479.811005   C352.810699,476.747467 353.945038,473.639893 355.600250,469.324829   C352.996643,470.657318 351.270447,471.371460 349.719452,472.360443   C331.874207,483.739044 314.585968,495.863495 298.940643,510.204651   C296.325073,512.602112 295.304047,515.748169 294.222778,518.860962   C284.027466,548.210815 270.703125,576.122314 255.225052,603.002991   C246.554672,618.060852 236.378601,632.037231 223.342621,643.749939   C218.108688,648.452637 213.245499,650.249329 210.074921,647.801331   C205.331680,644.139343 206.531143,639.287720 208.028976,634.558350   C213.842499,616.202576 223.193665,599.537048 232.801270,583.004639   C245.130630,561.788757 259.280518,541.857788 275.286102,523.254272   C277.347076,520.858765 279.379120,518.378357 281.764557,516.333923   C287.635315,511.302216 291.525635,505.186371 293.642029,497.725098   C297.271912,484.928131 303.021301,472.826569 306.473022,458.519257   C298.663940,470.388184 289.955872,479.954926 280.998016,489.278870   C273.973206,496.590759 266.958923,504.063782 256.495697,506.593964   C250.195465,508.117401 247.076447,505.707214 246.642410,499.177582   C246.259140,493.411926 247.379745,487.895142 249.087311,482.482422   C253.242340,469.311829 257.844635,456.307861 264.218842,444.006531   C264.601501,443.268066 265.113586,442.595093 265.477142,441.848633   C266.753387,439.228180 268.713989,437.849243 271.502289,439.289764   C274.410675,440.792328 273.347565,443.247437 272.231506,445.335205   C268.382751,452.534790 264.952362,459.917236 261.896362,467.488770   C258.713104,475.375610 256.261963,483.471222 254.622589,491.804230   C254.183716,494.035004 253.912598,496.367706 254.896179,498.880127   C259.022095,497.965576 262.104279,495.308472 265.093811,492.854767   C284.962463,476.547180 299.771820,456.200500 311.632324,433.590027   C313.090546,430.810028 314.102997,427.755646 318.077850,429.190063   C321.899628,430.569275 321.177002,433.471100 320.474762,436.650757   C315.992462,456.945099 309.770996,476.711670 302.222870,497.081787   C313.705627,488.022888 324.360107,479.398956 335.972748,472.116180   C342.171783,468.228485 348.329132,464.219910 355.061646,461.272949   C359.048676,459.527740 361.145477,456.325256 362.664062,452.476990   C364.557373,447.679077 366.574982,442.929657 368.579803,438.176544   C369.642853,435.656250 370.841858,432.824097 374.301086,434.210724   C377.836456,435.627808 377.302582,438.248383 375.822235,441.205627   C374.040039,444.765839 371.445770,448.558380 371.446014,452.250183   C371.446747,462.609802 361.660950,468.773438 361.424255,478.596588   C370.127258,467.614868 379.334534,456.715881 389.212341,446.426483   C396.823792,438.497894 404.672028,430.833130 416.009552,428.178650   C428.742828,425.197327 437.840424,434.555847 434.420441,447.142609   C431.055542,459.526764 424.805664,470.352936 416.061371,481.465759   C437.025299,473.350891 456.643280,465.647308 475.482544,456.099884   C478.637024,454.501251 481.001373,452.111481 482.627625,448.744446   C487.746002,438.147247 498.970490,435.678467 509.061279,438.410583   C518.291199,440.909637 523.398804,450.694916 521.720825,461.087921   C521.460205,462.702057 521.329529,464.337158 521.153625,465.835724   C523.055969,467.400665 524.560425,465.973114 526.055847,465.630554   C536.185364,463.310242 545.550964,459.007446 554.745483,454.303375   C559.629700,451.804535 563.029541,448.041107 565.680298,443.111847   C578.847839,418.625824 591.799500,394.000031 605.829651,370.009705   C615.469177,353.526794 625.154724,336.974426 636.756165,321.705841   C637.649292,320.530487 638.749084,319.436707 639.952942,318.589142   C642.213806,316.997345 644.591736,316.048676 647.332214,317.838287   C649.965271,319.557800 650.524597,321.880066 649.974487,324.763367   C647.890991,335.684662 645.772034,346.599884 643.793457,357.540375   C637.858643,390.356354 631.899963,423.170441 628.228821,456.342926   C627.060669,466.898041 625.555969,477.436890 624.924866,488.026062   C623.703674,508.516052 621.427979,529.075500 626.334900,549.439880   C627.191650,552.995850 628.053101,556.569580 629.804749,559.811707   C632.971802,565.673401 637.033325,566.331299 641.714966,561.567871   C647.368652,555.815369 651.463013,548.901184 655.378540,541.934509   C670.410767,515.187866 682.540833,487.074554 694.555481,458.889648   C707.402344,428.752228 720.325378,398.635742 733.939087,368.840912   C742.856689,349.323975 753.056335,330.392609 762.697266,311.206757   C763.294250,310.018707 763.972839,308.862976 764.708252,307.755066   C766.255188,305.424805 768.191040,304.204376 771.022278,305.709473   C773.984497,307.284119 775.179260,309.783691 773.794434,312.771149   C772.221924,316.163513 770.983643,319.700378 767.516418,322.136108   C764.080261,324.550018 763.072937,329.020325 761.153931,332.655304   C743.745605,365.629578 728.405518,399.575287 713.805420,433.865814   C704.883484,454.820526 696.388184,475.971680 686.889038,496.661652   C677.316101,517.512268 667.646545,538.381287 655.026123,557.664429   C652.475281,561.561951 649.809692,565.435913 646.135803,568.402283   C637.197266,575.619324 627.204468,573.331116 622.394897,562.869080   C618.661499,554.748108 617.753540,545.944702 616.688416,537.199097   C614.908020,522.580933 615.434326,507.914398 616.832275,493.362915   C619.099182,469.766327 621.480774,446.178741 625.291748,422.738617   C628.671509,401.950653 631.826843,381.126831 635.700684,360.422913   C637.613647,350.199036 639.735291,340.014191 641.395203,329.666840   C633.645874,339.310059 627.105408,349.674316 620.887939,360.227356   C603.486084,389.763794 587.017090,419.824127 570.713867,449.978149   C554.408569,480.135986 538.871277,510.689301 523.220825,541.187134   C514.407410,558.361694 505.205872,575.338684 496.031647,592.325012   C494.108337,595.886047 492.318512,600.043640 486.878662,599.365723   C484.927795,599.122620 483.233826,598.838867 482.715332,596.599609   C482.187836,594.321655 482.805176,592.593140 485.204407,591.944580   C487.779266,591.248474 488.711761,589.129272 489.868896,587.083679   C509.383850,552.585205 526.744690,516.958069 545.066101,481.834473   C548.064697,476.085938 551.144897,470.379883 554.573120,463.928223   C548.100952,466.310364 542.345581,468.559540 536.497803,470.535187   C532.573242,471.861084 528.573853,473.376648 524.507263,473.772278   C518.772644,474.330261 515.823242,477.563202 513.250427,482.197571   C507.263977,492.980743 499.328827,502.035309 488.639648,508.502533   C484.399841,511.067719 480.017670,512.590332 474.966919,512.377563   C466.008453,512.000244 460.122101,506.178131 459.620148,497.264954   C459.061798,487.350372 462.079010,478.353424 466.981689,468.634583   C462.596466,470.260620 459.135925,471.297516 455.885345,472.791290   C440.902588,479.676483 425.432739,485.346588 410.070251,491.279633   C406.424835,492.687500 403.379181,494.693268 400.433807,497.274292   C393.194244,503.618317 386.183472,510.340546 377.308777,514.513855   C376.255280,515.009216 375.200867,515.558777 374.086395,515.857910   C370.868286,516.721741 367.408447,516.893738 365.474335,513.843811   C363.513062,510.751007 365.340027,507.834808 367.502441,505.297699   C373.245270,498.559753 381.385040,495.485168 389.034515,492.075165   C409.106201,483.127533 418.739685,465.955780 426.296509,446.909180   C426.776672,445.698914 426.849518,444.306702 426.992035,442.986206   C427.653351,436.858215 423.814148,433.372101 417.940796,434.931488   C406.594788,437.943848 398.592407,445.905762 391.196381,454.222839   C374.803314,472.657562 360.787506,492.944458 346.671082,513.131531   C339.539246,523.330261 336.211578,535.361084 330.643677,546.322021   C321.677795,563.971924 314.291870,582.412476 304.140869,599.473328   C303.040924,601.322083 301.908447,603.243164 300.395660,604.727783   C298.963806,606.132935 296.889069,606.979980 294.897491,605.749817   C292.796936,604.452332 292.289398,602.425232 293.148926,600.076538   C294.689331,595.867188 296.208282,591.649902 297.869720,587.070923  M252.235596,565.691650   C237.149216,589.308044 222.191223,612.988586 214.155670,640.533752   C216.177597,640.502930 217.005844,639.625488 217.835938,638.851501   C229.967087,627.540100 240.198486,614.726807 248.320175,600.244934   C261.721436,576.349060 274.760559,552.281250 283.903107,525.778809   C271.866302,538.025696 262.124969,551.457642 252.235596,565.691650  M502.256256,485.746857   C503.995789,482.964661 506.006683,480.313507 506.688934,476.643677   C496.097778,476.233704 488.063995,471.402802 482.022705,462.018158   C473.178375,471.669159 467.914032,482.256897 467.421539,494.835144   C467.047394,504.390350 473.770660,508.255585 482.339386,503.763550   C490.293610,499.593567 496.610596,493.561340 502.256256,485.746857  M496.930267,466.761414   C512.257812,472.256561 514.175232,467.461090 513.667969,453.730286   C513.661865,453.564301 513.671814,453.392059 513.630920,453.233948   C512.643066,449.418427 511.167480,445.739044 507.004150,444.635376   C502.451416,443.428467 497.794891,443.129639 494.021332,446.972351   C487.188049,453.930878 487.797302,459.236694 496.930267,466.761414  z" fill="#000000"/><path d=" M771.092163,473.124939   C777.605286,464.484833 784.643005,456.595520 788.548523,446.666504   C789.621765,443.938110 791.580688,443.119873 794.101379,443.957520   C796.866943,444.876526 796.530579,447.218536 795.871765,449.384888   C792.200500,461.458130 787.041992,473.073730 784.749207,485.571381   C784.299072,488.024902 783.679138,490.461243 783.430481,492.934967   C782.809143,499.117493 785.487244,501.046112 791.112610,498.484741   C800.011292,494.432922 807.360046,488.140228 814.746277,481.916412   C817.543030,479.559784 820.211365,477.036438 823.123230,474.833588   C829.132629,470.287415 832.918396,464.648865 835.381165,457.284576   C846.800537,423.137543 862.893616,391.277557 884.210205,362.173889   C890.331482,353.816498 897.556274,346.453949 905.699524,340.011353   C908.528870,337.772888 911.552490,336.804688 914.968018,338.385864   C918.530212,340.034973 918.389526,343.289551 918.361877,346.532715   C918.310242,352.580444 915.748779,357.875000 913.162720,363.045197   C900.272583,388.816467 887.088074,414.449005 869.613464,437.523590   C860.971741,448.934692 851.177002,459.370148 840.917603,469.358551   C836.078003,474.070190 837.522827,480.537994 836.427917,486.267731   C835.966919,488.680206 836.312012,491.252533 836.340271,493.751617   C836.452515,503.688873 842.407654,507.934753 851.926025,504.701202   C862.656433,501.055847 871.508728,494.338104 880.406067,487.526947   C892.166992,478.523682 898.902283,467.209198 903.522522,452.877716   C910.241699,432.035645 920.945068,412.606995 931.937012,393.528137   C941.503967,376.922577 951.459778,360.588928 963.730774,345.814026   C967.651489,341.093414 971.796448,336.484314 977.162292,333.244904   C983.639893,329.334351 988.712891,331.881226 989.478394,339.266876   C989.962219,343.934387 988.543457,348.189087 986.964600,352.363800   C979.866882,371.131134 970.201965,388.608734 959.524231,405.520691   C948.058716,423.680267 935.982117,441.427490 921.576782,457.445435   C916.680115,462.890259 911.546021,468.120850 906.583252,473.507233   C901.575623,478.942352 900.654663,496.351593 905.351135,501.875427   C908.996338,506.162781 914.030701,506.372894 919.146912,505.095490   C928.566895,502.743622 937.442261,499.023071 945.922607,494.307373   C948.241699,493.017822 950.627014,491.742157 953.134094,490.930023   C955.089355,490.296661 957.312988,490.673462 958.085510,493.032471   C958.766174,495.110779 958.205750,496.943970 955.954895,497.985321   C943.012024,503.973450 930.633850,511.652374 915.974243,512.781982   C905.429688,513.594482 896.064941,507.700287 895.683350,496.429138   C895.561279,492.824127 895.664185,489.211487 895.664185,485.432526   C892.643127,485.997406 891.221130,487.901123 889.529602,489.428955   C878.952515,498.982971 867.648926,507.327850 853.727661,511.498718   C839.190979,515.854004 828.916748,508.362610 828.645203,493.228119   C828.568909,488.977966 829.194275,484.777893 829.696472,479.181732   C824.448303,483.652679 820.157166,487.227325 815.957092,490.905914   C810.174011,495.971039 803.750061,500.120422 797.256958,504.173035   C796.135803,504.872803 794.898621,505.450073 793.641724,505.857941   C788.998901,507.364624 784.027161,508.994781 779.849670,505.474487   C775.535828,501.839355 775.134216,496.502655 775.945801,491.203644   C776.595398,486.962128 777.518494,482.762512 778.567383,477.243408   C773.489929,482.394379 769.453186,486.916168 764.970032,490.940704   C757.678955,497.485962 750.447876,504.322601 740.402649,506.511139   C730.546021,508.658539 724.701416,502.746124 726.404968,492.616364   C728.921875,477.650848 735.700134,464.248444 741.738586,450.572571   C743.081848,447.530334 744.572998,444.546478 745.767822,441.447754   C746.830872,438.690948 748.679260,437.870972 751.262329,438.863770   C754.028992,439.927124 753.666321,442.329285 752.828674,444.348114   C750.789368,449.262756 748.495789,454.072754 746.270630,458.909210   C741.814575,468.594208 737.751709,478.433075 735.069519,488.772949   C734.169739,492.241638 732.592407,496.569702 735.882141,498.967194   C739.122681,501.328888 742.328552,498.136688 745.281006,496.287079   C755.129578,490.117249 763.299377,482.094604 771.092163,473.124939  M922.924744,426.377716   C917.751709,437.139252 912.720947,447.959167 908.436218,460.287445   C915.440491,453.544037 920.883850,447.072906 925.992920,440.288757   C945.640442,414.199310 963.655334,387.126434 976.834778,357.082031   C979.098267,351.921997 980.806274,346.678436 981.335571,340.813873   C978.932068,340.869415 977.815125,342.366577 976.505798,343.584015   C970.508972,349.159973 965.218567,355.360199 960.603516,362.098755   C946.677795,382.431671 934.241943,403.647247 922.924744,426.377716  M897.506775,377.078552   C902.537720,367.489594 907.420654,357.839752 910.734436,346.567017   C889.946167,360.109528 847.802063,429.505615 845.181641,454.012634   C867.000488,431.297699 883.218323,405.295898 897.506775,377.078552  z" fill="#000000"/><path d=" M133.204926,372.361847   C109.671387,377.048462 86.568253,381.700470 63.468269,386.368073   C60.544506,386.958862 57.691097,387.476501 56.092457,390.659027   C54.948929,392.935516 52.584721,393.491638 50.069382,393.356812   C44.558601,393.061523 39.080780,393.511017 33.712467,394.733917   C31.046661,395.341187 28.916388,394.912964 27.960184,392.343079   C26.903406,389.502899 28.647118,387.481598 30.967329,386.206238   C32.386635,385.426056 34.103500,385.132446 35.720989,384.775604   C77.846039,375.482727 120.044281,366.575592 162.624359,359.548187   C179.484650,356.765533 196.221100,353.240143 213.055359,350.289215   C221.534088,348.802948 230.090668,347.719971 238.642365,346.711975   C241.860184,346.332703 244.284836,345.407776 245.940765,342.409302   C251.744873,331.899536 258.992432,322.342865 265.902710,312.563141   C267.474915,310.338135 269.203766,309.037415 271.649567,310.953094   C274.169678,312.926941 273.485168,315.300049 271.903656,317.581024   C267.637299,323.734253 263.356567,329.877625 259.120911,336.051880   C257.642670,338.206726 256.279388,340.440399 254.622589,343.012207   C259.386627,344.540680 263.510986,343.086853 267.360779,342.339508   C286.453186,338.633240 305.783997,336.608704 324.992554,333.760315   C347.139923,330.476044 369.329987,327.301392 391.602509,325.101959   C406.436188,323.637177 421.374420,321.665863 436.388306,323.605591   C438.990417,323.941742 441.258636,324.764313 443.116272,326.519470   C444.794952,328.105560 444.850647,330.111725 443.642365,331.979004   C442.583801,333.614807 440.898438,334.836151 438.971741,333.870148   C427.683502,328.210358 415.756805,330.674957 404.234283,331.755096   C379.608246,334.063660 355.047455,337.177063 330.526123,340.456055   C312.767334,342.830750 295.125031,346.066956 277.410828,348.789093   C269.204010,350.050232 260.961212,351.103760 252.710724,352.039917   C249.752930,352.375549 247.934265,353.744446 246.399612,356.192596   C222.247147,394.720947 200.082413,434.373230 179.546951,474.928864   C161.504608,510.560791 145.347641,547.074524 129.468246,583.709290   C128.276535,586.458679 127.394058,589.228333 127.162903,592.312500   C126.934006,595.366638 125.212975,598.002258 121.591362,597.064514   C118.154091,596.174500 118.255684,593.217773 119.223068,590.527466   C123.166779,579.560120 128.278778,569.074341 132.703613,558.309753   C148.982605,518.706787 167.628296,480.218903 187.694778,442.442444   C200.956497,417.476379 215.252930,393.056244 229.307480,368.518494   C231.837570,364.101196 234.873642,359.963684 237.905853,354.204742   C202.445145,360.369598 168.040710,366.350800 133.204926,372.361847  z" fill="#000000"/></g></svg>